<?xml version="1.0" encoding="utf-8"?>
<!-- Generated by Me -->
<!DOCTYPE svg PUBLIC "-//W3C//DTD SVG 1.1//EN" "http://www.w3.org/Graphics/SVG/1.1/DTD/svg11.dtd">
<svg version="1.1" xmlns="http://www.w3.org/2000/svg" xmlns:xlink="http://www.w3.org/1999/xlink" viewBox="0 0 18 15" width="18" height="15">
<path fill="#444444" d="M17.7,5.4L17.7,5.4c-0.9-2.5-3.5-3.8-6-2.9c-0.1,0-0.2,0.1-0.2,0.2c-0.8-0.8-1.8-1.4-2.9-1.8
    C7.9,0.6,7.2,0.5,6.5,0.5c-2.8,0-5.2,1.7-6.1,4.4c-0.6,1.8-0.2,3.8,0.9,5.3C2.1,11,3.1,11.6,4.2,12c0.7,0.2,0.9,0.1,0.7,0.8
    c-0.1,0.3-0.3,1.4-0.4,1.7c0.4,0.1,0.9,0.2,1.3,0.1c2.2-0.1,4.2-1,5.7-2.6c0,0.1,0.1,0.1,0.2,0.2c0.6,0.3,1.3,0.5,2.1,0.5
    c0.3,0,0.6,0,0.9-0.1l0.4-0.1L15,12c0-0.1-0.1-0.4-0.1-0.6s-0.1-0.4-0.1-0.6l0.2-0.1c0.8-0.3,1.6-0.8,2.1-1.4
    C17.9,8.2,18.1,6.7,17.7,5.4z M9.8,12.3c-1.1,0.9-2.5,1.4-4,1.5H5.6L5.8,13c0.1-0.4,0.1-0.8-0.1-1.2c-0.2-0.3-0.5-0.5-0.9-0.5
    l-0.3-0.1c-1-0.3-1.8-0.9-2.5-1.6c-0.7-0.9-1-2-1-3.1c0,0,0,0,0,0l2.1,0l0,1.9h4.1V7.3H3.1V6.8h7.2V5.8H3.1V5.3h7.2V4.3H3.1l0,2
    L1,6.4c0,0,0,0,0,0c0,0,0-0.1,0-0.1c0-0.4,0.1-0.8,0.2-1.1c0.8-2.2,2.9-3.7,5.2-3.7c0.6,0,1.2,0.1,1.8,0.3c1.5,0.4,2.7,1.4,3.4,2.7
    c0.7,1.3,0.9,2.8,0.5,4.3C11.9,10.1,11,11.4,9.8,12.3z M16.3,8.7c-0.5,0.5-1.1,0.9-1.7,1.1l-0.2,0.1c-0.4,0-0.7,0.4-0.6,0.7
    c0,0.1,0,0.2,0.1,0.3c0,0.1,0.1,0.4,0.1,0.6v0.2c-0.7,0-1.3-0.1-1.9-0.4l0,0c0.5-0.7,0.9-1.5,1.1-2.4c0.5-1.9,0.2-4-1-5.6
    c2-0.6,4,0.4,4.7,2.4C17.2,6.7,17,7.9,16.3,8.7z">
</path>
</svg>