<?xml version="1.0" encoding="utf-8"?>
<!DOCTYPE svg PUBLIC "-//W3C//DTD SVG 1.1//EN" "http://www.w3.org/Graphics/SVG/1.1/DTD/svg11.dtd">
<svg version="1.1" xmlns="http://www.w3.org/2000/svg" xmlns:xlink="http://www.w3.org/1999/xlink" width="13" height="14" viewBox="0 0 13 14">
<path fill="#444444" d="M11.5,1.3h-10C1,1.3,0.7,1.7,0.7,2.2v9.9c0,0.4,0.4,0.9,0.9,0.9h9.9c0.5,0,0.9-0.4,0.9-0.9V2.2
	C12.3,1.7,11.9,1.3,11.5,1.3z M4.3,11.2H2.5V5.8h1.8V11.2z M3.4,5.1C2.8,5.1,2.3,4.6,2.3,4s0.5-1,1.1-1s1,0.5,1,1S3.9,5.1,3.4,5.1z
	 M10.5,11.2H8.7V8.5c0-0.7-0.2-1.4-0.9-1.4S6.9,7.8,6.9,8.5v2.7H5.2V5.8H7v0.6l0,0C7.3,6,7.8,5.7,8.5,5.7c1.7,0,2,1.1,2,2.4V11.2z"></path>
</svg>
