<svg xmlns="http://www.w3.org/2000/svg" viewBox="-13.3 162.1 753.4 1178.1" fill="#2c888c">
  <path
     style="fill:#2c888c;stroke:none"
     d="m 467.05879,1076.3447 0,115 0,36 c 0,5.204 -1.58046,11.793 0.46622,16.83 1.34588,3.313 6.22947,5.857 9.79796,8.08 10.51195,6.552 25.085,12.637 39.58328,13.09 l 0,-204 35.18644,0 0,204 51.31356,0 0,-204 33.72034,0 0,204 51.31356,0 0,-204 c 10.22606,0 21.15878,0.696 28.50395,-5.188 5.67381,-4.546 5.21639,-10.216 5.21639,-15.812 10e-4,-11.324 5.6181,-30.444 -14.66249,-35.146 -9.60296,-2.226 -22.22023,-0.854 -32.25277,-0.854 l -67.44068,0 -67.44067,0 c -18.85554,0 -52.2976,-0.402 -70.8174,2.425 -67.43774,10.296 -85.33493,25.9228 -109.11217,68.6798 -9.0825,16.334 -20.75565,43.6724 -23.19231,61.0704 -2.53929,18.122 -18.11379,64.1961 -24.68926,82.0531 -8.92269,24.231 -28.27724,39.5065 -56.61259,55.2455 l 0,-123.4738 0,-35 c 0,-4.874 1.61857,-11.37 -0.88406,-16 -1.90593,-3.523 -6.71475,-6.222 -10.84476,-8.535 -10.70547,-5.998 -24.06752,-11.623 -38.11864,-12.465 l 0,204 -35.18644,0 0,-204 -51.31356,0 0,204 -33.720342,0 0,-204 -51.31356,0 0,204 c -5.30318,0 -10.93301,-0.328 -16.12712,0.533 -21.519577,3.568 -17.59322,20.006 -17.59322,31.467 0,9.0688 -1.82462,19.8214 13.19609,23.9907 9.95483,2.7633 24.58433,1.0093 35.18527,1.0093 l 76.237292,0 c 40.23716,0 84.25833,3.6495 123.15254,-4.1443 80.95374,-16.2227 106.74319,-64.6036 121.7766,-118.6626 5.5316,-19.893 23.85233,-73.2023 28.54532,-93.0883 6.88628,-29.174 22.82423,-62.3517 68.12723,-59.3331 m -164.20339,53.2283 c 8.46967,-6.614 10.40639,-18.889 15.78992,-27 5.25744,-7.922 10.8125,-15.52 17.34984,-23 2.69763,-3.087 8.304,-7.203 8.00932,-11 -0.30788,-3.979 -6.59746,-7.397 -10.36681,-10 -10.54567,-7.283 -21.56342,-13.832 -33.71447,-19.848 -17.62548,-8.727 -38.83704,-16.065 -60.11017,-19.498 -20.37002,-3.287 -40.79868,-2.654 -61.57627,-2.654 l -83.567802,0 -52.77966,0 c -8.34828,0 -18.37964,-1.003 -26.38866,0.854 -5.80869,1.347 -10.4687,4.296 -12.86123,8.15 -2.33177,3.756 -1.8006,8.011 -1.80096,11.996 -8.9e-4,9.719 -4.563307,25.375 7.60658,32.442 8.01444,4.654 19.28041,3.558 29.04597,3.558 l 65.974572,0 71.83898,0 c 15.06713,0 30.82186,-0.932 45.44916,2.042 19.75132,4.017 38.54821,13.9 52.53042,23.997 12.50585,9.031 20.50783,19.37 29.57127,29.961 m 99.27789,101.8069 c -9.2599,14.677 -4.54229,17.7077 -16.32095,31.7717 -3.68431,4.4 -14.93518,27.8736 -13.44709,33.1056 1.42652,5.018 17.52528,14.5428 22.86042,17.7398 14.81643,8.881 29.38801,17.495 46.90939,23.87 17.35278,6.3131 36.05144,11.674 55.71187,13.4166 18.0653,1.6012 37.49995,0.2894 55.71186,0.2894 l 82.1017,0 48.38135,0 c 7.80699,0 17.55071,1.037 24.92227,-1.0093 5.28089,-1.4659 9.43143,-4.3837 11.51329,-7.9915 2.1801,-3.7795 1.68309,-8.021 1.68309,-11.9992 10e-4,-9.406 4.07576,-23.477 -6.17816,-30.892 -12.14518,-8.784 -39.28419,-5.108 -55.39811,-5.108 l -98.22882,0 c -16.37489,0 -33.56346,1.02 -49.84746,-0.174 -30.49491,-2.235 -65.20638,-20.657 -82.12372,-36.826 -6.32183,-6.041 -21.37785,-20.5351 -28.25093,-26.1931 z"
     id="path6" />
  <path
     style="fill:#2c888c;stroke:none"
     d="M 11.403331,162.11111 C 33.914075,237.48643 71.653513,235.54264 85.51218,342.60973 221.01836,319.03706 307.04206,395.32796 406.65054,446.39644 357.2014,395.10415 288.17519,350.80482 227.55414,306.51001 160.26084,257.34038 90.951776,200.55885 11.403331,162.11111 m 80.284583,203.06095 37.054426,117.3241 c 36.37201,0 75.189,-2.79683 111.16328,1.46565 139.23819,16.49848 238.77873,79.18746 352.01705,133.90831 C 500.99728,484.4627 300.08201,368.31499 91.687914,365.17206 m 49.405906,162.44876 c 2.75932,46.95807 18.5198,92.64092 18.52722,139.88643 135.06338,-4.23721 257.20094,-27.84642 389.07147,11.06907 53.93271,15.91547 94.80991,42.05167 142.04196,65.64284 C 625.68543,579.23124 348.54302,527.62082 141.09382,527.62082 m 24.70294,166.96122 c 0,52.34912 -12.89122,101.67487 -18.5272,153.42382 141.85052,-33.14405 323.53453,-63.49039 469.35605,-26.61902 46.86768,11.84973 83.32923,33.63591 123.51476,53.69382 C 734.7366,843.82732 733.68672,794.65499 704.05553,769.65593 675.53598,745.59997 607.7202,734.95958 567.21971,726.85519 436.99811,700.80473 300.18699,694.58204 165.79676,694.58204 M -13.299625,988.96709 c 32.794405,7.2786 78.084796,-8.3616 111.163283,-13.5374 78.939502,-12.35513 160.210982,-22.63453 240.853762,-26.66867 66.22861,-3.31666 138.38593,-3.57838 203.79934,4.47185 35.85017,4.4132 87.49786,21.7546 123.26773,17.1564 34.44827,-4.43125 53.64246,-45.95044 62.0044,-67.15902 -135.14984,-46.90257 -317.14883,-37.99497 -463.18032,-27.84192 -42.11297,2.92859 -94.77719,-5.04493 -134.55079,7.98706 -23.0318,7.54485 -35.461708,32.80563 -50.101911,46.92965 -25.290879,24.3989 -55.685397,44.98928 -93.255494,58.66205"
     id="path6-3" />
</svg>
