<svg viewBox="0 0 24 24" fill="currentColor" xmlns="http://www.w3.org/2000/svg">
  <path d="M7.5 5C4.46 5 2 7.46 2 10.5C2 13.04 3.74 15.18 6.09 15.78C5.66 16.78 4.81 17.51 3.69 17.79C3.37 17.87 3.33 18.3 3.62 18.5C3.74 18.59 3.89 18.61 4.03 18.57C7.62 17.58 10 14.46 10 10.5C10 7.46 10.46 5 7.5 5Z"/>
  <path d="M17.5 5C14.46 5 12 7.46 12 10.5C12 13.04 13.74 15.18 16.09 15.78C15.66 16.78 14.81 17.51 13.69 17.79C13.37 17.87 13.33 18.3 13.62 18.5C13.74 18.59 13.89 18.61 14.03 18.57C17.62 17.58 20 14.46 20 10.5C20 7.46 20.46 5 17.5 5Z"/>
</svg>
