<svg viewBox="0 0 24 24" fill="currentColor" xmlns="http://www.w3.org/2000/svg">
  <path d="M9.5 4C5.36 4 2 7.36 2 11.5C2 14.94 4.32 17.86 7.51 18.71C6.93 20.06 5.78 21.06 4.27 21.45C3.83 21.56 3.78 22.13 4.16 22.41C4.32 22.53 4.52 22.55 4.71 22.5C9.59 21.16 13 16.95 13 11.5C13 7.36 13.64 4 9.5 4Z"/>
  <path d="M19.5 4C15.36 4 12 7.36 12 11.5C12 14.94 14.32 17.86 17.51 18.71C16.93 20.06 15.78 21.06 14.27 21.45C13.83 21.56 13.78 22.13 14.16 22.41C14.32 22.53 14.52 22.55 14.71 22.5C19.59 21.16 23 16.95 23 11.5C23 7.36 23.64 4 19.5 4Z"/>
</svg>
