<svg viewBox="0 0 24 24" fill="currentColor" xmlns="http://www.w3.org/2000/svg">
  <path d="M7.5 4C4.462 4 2 7.022 2 11.5C2 16.194 5.034 20 8.25 20C10.873 20 13 17.873 13 15.25C13 12.627 10.873 10.5 8.25 10.5C7.687 10.5 7.146 10.598 6.643 10.778C7.118 8.342 8.795 6.5 10.943 6.043C11.36 5.954 11.66 5.585 11.628 5.16L11.526 3.804C11.494 3.378 11.142 3.046 10.715 3.085C9.65 3.181 8.534 3.514 7.5 4Z"/>
  <path d="M18.5 4C15.462 4 13 7.022 13 11.5C13 16.194 16.034 20 19.25 20C21.873 20 24 17.873 24 15.25C24 12.627 21.873 10.5 19.25 10.5C18.687 10.5 18.146 10.598 17.643 10.778C18.118 8.342 19.795 6.5 21.943 6.043C22.36 5.954 22.66 5.585 22.628 5.16L22.526 3.804C22.494 3.378 22.142 3.046 21.715 3.085C20.65 3.181 19.534 3.514 18.5 4Z"/>
</svg>
