<svg style="display: none;"><defs><style>.a{fill:#2c888c;}.b{fill:none;stroke:#2c888c;stroke-miterlimit:10;stroke-width:5px;}</style></defs><symbol viewBox="0 0 15 14" id="icon-ambulance"><title>ambulance</title> <path d="M5 11q0-0.414-0.293-0.707t-0.707-0.293-0.707 0.293-0.293 0.707 0.293 0.707 0.707 0.293 0.707-0.293 0.293-0.707zM2 7h3v-2h-1.234q-0.109 0.016-0.172 0.070l-1.523 1.523q-0.055 0.094-0.070 0.172v0.234zM12 11q0-0.414-0.293-0.707t-0.707-0.293-0.707 0.293-0.293 0.707 0.293 0.707 0.707 0.293 0.707-0.293 0.293-0.707zM13 5.75v-1.5q0-0.109-0.070-0.18t-0.18-0.070h-1.75v-1.75q0-0.109-0.070-0.18t-0.18-0.070h-1.5q-0.109 0-0.18 0.070t-0.070 0.18v1.75h-1.75q-0.109 0-0.18 0.070t-0.070 0.18v1.5q0 0.109 0.070 0.18t0.18 0.070h1.75v1.75q0 0.109 0.070 0.18t0.18 0.070h1.5q0.109 0 0.18-0.070t0.070-0.18v-1.75h1.75q0.109 0 0.18-0.070t0.070-0.18zM15 1.5v9q0 0.203-0.148 0.352t-0.352 0.148h-1.5q0 0.828-0.586 1.414t-1.414 0.586-1.414-0.586-0.586-1.414h-3q0 0.828-0.586 1.414t-1.414 0.586-1.414-0.586-0.586-1.414h-1q-0.203 0-0.352-0.148t-0.148-0.352 0.148-0.352 0.352-0.148v-3.25q0-0.203 0.102-0.453t0.25-0.398l1.547-1.547q0.148-0.148 0.398-0.25t0.453-0.102h1.25v-2.5q0-0.203 0.148-0.352t0.352-0.148h9q0.203 0 0.352 0.148t0.148 0.352z"/> </symbol><symbol viewBox="0 0 16 14" id="icon-bed"><title>bed</title> <path d="M2 8h13.5q0.203 0 0.352 0.148t0.148 0.352v3.5h-2v-2h-12v2h-2v-9.5q0-0.203 0.148-0.352t0.352-0.148h1q0.203 0 0.352 0.148t0.148 0.352v5.5zM6.5 5.5q0-0.828-0.586-1.414t-1.414-0.586-1.414 0.586-0.586 1.414 0.586 1.414 1.414 0.586 1.414-0.586 0.586-1.414zM16 7.5v-0.5q0-1.242-0.879-2.121t-2.121-0.879h-5.5q-0.203 0-0.352 0.148t-0.148 0.352v3h9z"/> </symbol><symbol viewBox="0 0 7 14" id="icon-bolt"><title>bolt</title> <path d="M6.914 4.422q0.141 0.156 0.055 0.344l-4.219 9.039q-0.102 0.195-0.328 0.195-0.031 0-0.109-0.016-0.133-0.039-0.199-0.148t-0.035-0.234l1.539-6.312-3.172 0.789q-0.031 0.008-0.094 0.008-0.141 0-0.242-0.086-0.141-0.117-0.102-0.305l1.57-6.445q0.031-0.109 0.125-0.18t0.219-0.070h2.563q0.148 0 0.25 0.098t0.102 0.23q0 0.062-0.039 0.141l-1.336 3.617 3.094-0.766q0.062-0.016 0.094-0.016 0.148 0 0.266 0.117z"/> </symbol><symbol viewBox="0 0 14 14" id="icon-briefcase"><title>briefcase</title> <path d="M5 2h4v-1h-4v1zM14 7v3.75q0 0.516-0.367 0.883t-0.883 0.367h-11.5q-0.516 0-0.883-0.367t-0.367-0.883v-3.75h5.25v1.25q0 0.203 0.148 0.352t0.352 0.148h2.5q0.203 0 0.352-0.148t0.148-0.352v-1.25h5.25zM8 7v1h-2v-1h2zM14 3.25v3h-14v-3q0-0.516 0.367-0.883t0.883-0.367h2.75v-1.25q0-0.312 0.219-0.531t0.531-0.219h4.5q0.312 0 0.531 0.219t0.219 0.531v1.25h2.75q0.516 0 0.883 0.367t0.367 0.883z"/> </symbol><symbol viewBox="0 0 13 14" id="icon-calendar"><title>calendar</title> <path d="M1 13h2.25v-2.25h-2.25v2.25zM3.75 13h2.5v-2.25h-2.5v2.25zM1 10.25h2.25v-2.5h-2.25v2.5zM3.75 10.25h2.5v-2.5h-2.5v2.5zM1 7.25h2.25v-2.25h-2.25v2.25zM6.75 13h2.5v-2.25h-2.5v2.25zM3.75 7.25h2.5v-2.25h-2.5v2.25zM9.75 13h2.25v-2.25h-2.25v2.25zM6.75 10.25h2.5v-2.5h-2.5v2.5zM4 3.5v-2.25q0-0.102-0.074-0.176t-0.176-0.074h-0.5q-0.102 0-0.176 0.074t-0.074 0.176v2.25q0 0.102 0.074 0.176t0.176 0.074h0.5q0.102 0 0.176-0.074t0.074-0.176zM9.75 10.25h2.25v-2.5h-2.25v2.5zM6.75 7.25h2.5v-2.25h-2.5v2.25zM9.75 7.25h2.25v-2.25h-2.25v2.25zM10 3.5v-2.25q0-0.102-0.074-0.176t-0.176-0.074h-0.5q-0.102 0-0.176 0.074t-0.074 0.176v2.25q0 0.102 0.074 0.176t0.176 0.074h0.5q0.102 0 0.176-0.074t0.074-0.176zM13 3v10q0 0.406-0.297 0.703t-0.703 0.297h-11q-0.406 0-0.703-0.297t-0.297-0.703v-10q0-0.406 0.297-0.703t0.703-0.297h1v-0.75q0-0.516 0.367-0.883t0.883-0.367h0.5q0.516 0 0.883 0.367t0.367 0.883v0.75h3v-0.75q0-0.516 0.367-0.883t0.883-0.367h0.5q0.516 0 0.883 0.367t0.367 0.883v0.75h1q0.406 0 0.703 0.297t0.297 0.703z"/> </symbol><symbol viewBox="0 0 13 14" id="icon-chain"><title>chain</title> <path d="M11.375 9.5q0-0.312-0.219-0.531l-1.625-1.625q-0.219-0.219-0.531-0.219-0.328 0-0.563 0.25 0.023 0.023 0.148 0.145t0.168 0.168 0.117 0.148 0.102 0.199 0.027 0.215q0 0.312-0.219 0.531t-0.531 0.219q-0.117 0-0.215-0.027t-0.199-0.102-0.148-0.117-0.168-0.168-0.145-0.148q-0.258 0.242-0.258 0.57 0 0.312 0.219 0.531l1.609 1.617q0.211 0.211 0.531 0.211 0.312 0 0.531-0.203l1.148-1.141q0.219-0.219 0.219-0.523zM5.883 3.992q0-0.312-0.219-0.531l-1.609-1.617q-0.219-0.219-0.531-0.219-0.305 0-0.531 0.211l-1.148 1.141q-0.219 0.219-0.219 0.523 0 0.312 0.219 0.531l1.625 1.625q0.211 0.211 0.531 0.211 0.328 0 0.563-0.242-0.023-0.023-0.148-0.145t-0.168-0.168-0.117-0.148-0.102-0.199-0.027-0.215q0-0.312 0.219-0.531t0.531-0.219q0.117 0 0.215 0.027t0.199 0.102 0.148 0.117 0.168 0.168 0.145 0.148q0.258-0.242 0.258-0.57zM12.875 9.5q0 0.937-0.664 1.586l-1.148 1.141q-0.648 0.648-1.586 0.648-0.945 0-1.594-0.664l-1.609-1.617q-0.648-0.648-0.648-1.586 0-0.961 0.688-1.633l-0.688-0.688q-0.672 0.688-1.625 0.688-0.937 0-1.594-0.656l-1.625-1.625q-0.656-0.656-0.656-1.594t0.664-1.586l1.148-1.141q0.648-0.648 1.586-0.648 0.945 0 1.594 0.664l1.609 1.617q0.648 0.648 0.648 1.586 0 0.961-0.688 1.633l0.688 0.688q0.672-0.688 1.625-0.688 0.937 0 1.594 0.656l1.625 1.625q0.656 0.656 0.656 1.594z"/> </symbol><symbol viewBox="0 0 10 14" id="icon-chevron-left"><title>chevron-left</title> <path d="M9.148 2.352l-4.148 4.148 4.148 4.148q0.148 0.148 0.148 0.352t-0.148 0.352l-1.297 1.297q-0.148 0.148-0.352 0.148t-0.352-0.148l-5.797-5.797q-0.148-0.148-0.148-0.352t0.148-0.352l5.797-5.797q0.148-0.148 0.352-0.148t0.352 0.148l1.297 1.297q0.148 0.148 0.148 0.352t-0.148 0.352z"/> </symbol><symbol viewBox="0 0 10 14" id="icon-chevron-right"><title>chevron-right</title> <path d="M8.648 6.852l-5.797 5.797q-0.148 0.148-0.352 0.148t-0.352-0.148l-1.297-1.297q-0.148-0.148-0.148-0.352t0.148-0.352l4.148-4.148-4.148-4.148q-0.148-0.148-0.148-0.352t0.148-0.352l1.297-1.297q0.148-0.148 0.352-0.148t0.352 0.148l5.797 5.797q0.148 0.148 0.148 0.352t-0.148 0.352z"/> </symbol><symbol viewBox="0 0 18 15" id="icon-clock-o"><title>clock-o</title> <path d="M17.7,5.4L17.7,5.4c-0.9-2.5-3.5-3.8-6-2.9c-0.1,0-0.2,0.1-0.2,0.2c-0.8-0.8-1.8-1.4-2.9-1.8
    C7.9,0.6,7.2,0.5,6.5,0.5c-2.8,0-5.2,1.7-6.1,4.4c-0.6,1.8-0.2,3.8,0.9,5.3C2.1,11,3.1,11.6,4.2,12c0.7,0.2,0.9,0.1,0.7,0.8
    c-0.1,0.3-0.3,1.4-0.4,1.7c0.4,0.1,0.9,0.2,1.3,0.1c2.2-0.1,4.2-1,5.7-2.6c0,0.1,0.1,0.1,0.2,0.2c0.6,0.3,1.3,0.5,2.1,0.5
    c0.3,0,0.6,0,0.9-0.1l0.4-0.1L15,12c0-0.1-0.1-0.4-0.1-0.6s-0.1-0.4-0.1-0.6l0.2-0.1c0.8-0.3,1.6-0.8,2.1-1.4
    C17.9,8.2,18.1,6.7,17.7,5.4z M9.8,12.3c-1.1,0.9-2.5,1.4-4,1.5H5.6L5.8,13c0.1-0.4,0.1-0.8-0.1-1.2c-0.2-0.3-0.5-0.5-0.9-0.5
    l-0.3-0.1c-1-0.3-1.8-0.9-2.5-1.6c-0.7-0.9-1-2-1-3.1c0,0,0,0,0,0l2.1,0l0,1.9h4.1V7.3H3.1V6.8h7.2V5.8H3.1V5.3h7.2V4.3H3.1l0,2
    L1,6.4c0,0,0,0,0,0c0,0,0-0.1,0-0.1c0-0.4,0.1-0.8,0.2-1.1c0.8-2.2,2.9-3.7,5.2-3.7c0.6,0,1.2,0.1,1.8,0.3c1.5,0.4,2.7,1.4,3.4,2.7
    c0.7,1.3,0.9,2.8,0.5,4.3C11.9,10.1,11,11.4,9.8,12.3z M16.3,8.7c-0.5,0.5-1.1,0.9-1.7,1.1l-0.2,0.1c-0.4,0-0.7,0.4-0.6,0.7
    c0,0.1,0,0.2,0.1,0.3c0,0.1,0.1,0.4,0.1,0.6v0.2c-0.7,0-1.3-0.1-1.9-0.4l0,0c0.5-0.7,0.9-1.5,1.1-2.4c0.5-1.9,0.2-4-1-5.6
    c2-0.6,4,0.4,4.7,2.4C17.2,6.7,17,7.9,16.3,8.7z"> </path> </symbol><symbol viewBox="0 0 14 14" id="icon-commenting-o"><title>commenting-o</title> <path d="M5 7q0 0.414-0.293 0.707t-0.707 0.293-0.707-0.293-0.293-0.707 0.293-0.707 0.707-0.293 0.707 0.293 0.293 0.707zM8 7q0 0.414-0.293 0.707t-0.707 0.293-0.707-0.293-0.293-0.707 0.293-0.707 0.707-0.293 0.707 0.293 0.293 0.707zM11 7q0 0.414-0.293 0.707t-0.707 0.293-0.707-0.293-0.293-0.707 0.293-0.707 0.707-0.293 0.707 0.293 0.293 0.707zM7 3q-1.594 0-2.98 0.543t-2.203 1.465-0.816 1.992q0 0.875 0.559 1.668t1.574 1.371l0.68 0.391-0.211 0.75q-0.187 0.711-0.547 1.344 1.187-0.492 2.148-1.336l0.336-0.297 0.445 0.047q0.539 0.062 1.016 0.062 1.594 0 2.98-0.543t2.203-1.465 0.816-1.992-0.816-1.992-2.203-1.465-2.98-0.543zM14 7q0 1.359-0.937 2.512t-2.547 1.82-3.516 0.668q-0.547 0-1.133-0.062-1.547 1.367-3.594 1.891-0.383 0.109-0.891 0.172h-0.039q-0.117 0-0.211-0.082t-0.125-0.215v-0.008q-0.023-0.031-0.004-0.094t0.016-0.078 0.035-0.074l0.047-0.070t0.055-0.066 0.062-0.070q0.055-0.062 0.242-0.27t0.27-0.297 0.242-0.309 0.254-0.398 0.211-0.461 0.203-0.594q-1.227-0.695-1.934-1.719t-0.707-2.195q0-1.016 0.555-1.941t1.492-1.598 2.234-1.066 2.719-0.395 2.719 0.395 2.234 1.066 1.492 1.598 0.555 1.941z"/> </symbol><symbol viewBox="0 0 14 14" id="icon-commenting"><title>commenting</title> <path d="M5 7q0-0.414-0.293-0.707t-0.707-0.293-0.707 0.293-0.293 0.707 0.293 0.707 0.707 0.293 0.707-0.293 0.293-0.707zM8 7q0-0.414-0.293-0.707t-0.707-0.293-0.707 0.293-0.293 0.707 0.293 0.707 0.707 0.293 0.707-0.293 0.293-0.707zM11 7q0-0.414-0.293-0.707t-0.707-0.293-0.707 0.293-0.293 0.707 0.293 0.707 0.707 0.293 0.707-0.293 0.293-0.707zM14 7q0 1.359-0.937 2.512t-2.547 1.82-3.516 0.668q-0.859 0-1.648-0.141-1.352 1.352-3.398 1.789-0.406 0.078-0.672 0.102-0.094 0.008-0.172-0.047t-0.102-0.141q-0.031-0.117 0.156-0.289 0.039-0.039 0.184-0.168t0.199-0.184 0.184-0.199 0.187-0.246 0.16-0.289 0.156-0.375 0.113-0.449 0.098-0.566q-1.141-0.703-1.793-1.691t-0.652-2.105q0-1.359 0.937-2.512t2.547-1.82 3.516-0.668 3.516 0.668 2.547 1.82 0.937 2.512z"/> </symbol><symbol viewBox="0 0 14 14" id="icon-comments"><title>comments</title> <path d="M11 6q0 1.086-0.734 2.008t-2.004 1.457-2.762 0.535q-0.672 0-1.375-0.125-0.969 0.688-2.172 1-0.281 0.070-0.672 0.125h-0.023q-0.086 0-0.16-0.062t-0.090-0.164q-0.008-0.023-0.008-0.051t0.004-0.051 0.016-0.047l0.020-0.039t0.027-0.043 0.031-0.039 0.035-0.039 0.031-0.035q0.039-0.047 0.18-0.195t0.203-0.23 0.176-0.227 0.195-0.301 0.16-0.344q-0.969-0.563-1.523-1.383t-0.555-1.75q0-1.086 0.734-2.008t2.004-1.457 2.762-0.535 2.762 0.535 2.004 1.457 0.734 2.008zM14 8q0 0.937-0.555 1.754t-1.523 1.379q0.078 0.187 0.16 0.344t0.195 0.301 0.176 0.227 0.203 0.23 0.18 0.195q0.008 0.008 0.031 0.035t0.035 0.039 0.031 0.039 0.027 0.043l0.020 0.039t0.016 0.047 0.004 0.051-0.008 0.051q-0.023 0.109-0.102 0.172t-0.172 0.055q-0.391-0.055-0.672-0.125-1.203-0.312-2.172-1-0.703 0.125-1.375 0.125-2.117 0-3.687-1.031 0.453 0.031 0.688 0.031 1.258 0 2.414-0.352t2.062-1.008q0.977-0.719 1.5-1.656t0.523-1.984q0-0.602-0.18-1.187 1.008 0.555 1.594 1.391t0.586 1.797z"/> </symbol><symbol viewBox="0 0 16 14" id="icon-diamond"><title>diamond</title> <path d="M1.656 6l4.867 5.195-2.344-5.195h-2.523zM8 12.031l2.727-6.031h-5.453zM4.203 5l1.594-3h-2.047l-2.25 3h2.703zM9.477 11.195l4.867-5.195h-2.523zM5.336 5h5.328l-1.594-3h-2.141zM11.797 5h2.703l-2.25-3h-2.047zM12.898 1.203l3 4q0.109 0.141 0.102 0.324t-0.133 0.316l-7.5 8q-0.141 0.156-0.367 0.156t-0.367-0.156l-7.5-8q-0.125-0.133-0.133-0.316t0.102-0.324l3-4q0.141-0.203 0.398-0.203h9q0.258 0 0.398 0.203z"/> </symbol><symbol viewBox="0 0 14 14" id="icon-envelope-o"><title>envelope-o</title> <path d="M13 11.75v-6q-0.25 0.281-0.539 0.516-2.094 1.609-3.328 2.641-0.398 0.336-0.648 0.523t-0.676 0.379-0.801 0.191h-0.016q-0.375 0-0.801-0.191t-0.676-0.379-0.648-0.523q-1.234-1.031-3.328-2.641-0.289-0.234-0.539-0.516v6q0 0.102 0.074 0.176t0.176 0.074h11.5q0.102 0 0.176-0.074t0.074-0.176zM13 3.539v-0.191t-0.004-0.102-0.023-0.098-0.043-0.070-0.070-0.059-0.109-0.020h-11.5q-0.102 0-0.176 0.074t-0.074 0.176q0 1.312 1.148 2.219 1.508 1.187 3.133 2.477 0.047 0.039 0.273 0.23t0.359 0.293 0.348 0.246 0.395 0.215 0.336 0.070h0.016q0.156 0 0.336-0.070t0.395-0.215 0.348-0.246 0.359-0.293 0.273-0.23q1.625-1.289 3.133-2.477 0.422-0.336 0.785-0.902t0.363-1.027zM14 3.25v8.5q0 0.516-0.367 0.883t-0.883 0.367h-11.5q-0.516 0-0.883-0.367t-0.367-0.883v-8.5q0-0.516 0.367-0.883t0.883-0.367h11.5q0.516 0 0.883 0.367t0.367 0.883z"/> </symbol><symbol viewBox="0 0 14 14" id="icon-envelope"><title>envelope</title> <path d="M14 5.547v6.203q0 0.516-0.367 0.883t-0.883 0.367h-11.5q-0.516 0-0.883-0.367t-0.367-0.883v-6.203q0.344 0.383 0.789 0.68 2.828 1.922 3.883 2.695 0.445 0.328 0.723 0.512t0.738 0.375 0.859 0.191h0.016q0.398 0 0.859-0.191t0.738-0.375 0.723-0.512q1.328-0.961 3.891-2.695 0.445-0.305 0.781-0.68zM14 3.25q0 0.617-0.383 1.18t-0.953 0.961q-2.937 2.039-3.656 2.539-0.078 0.055-0.332 0.238t-0.422 0.297-0.406 0.254-0.449 0.211-0.391 0.070h-0.016q-0.18 0-0.391-0.070t-0.449-0.211-0.406-0.254-0.422-0.297-0.332-0.238q-0.711-0.5-2.047-1.426t-1.602-1.113q-0.484-0.328-0.914-0.902t-0.43-1.066q0-0.609 0.324-1.016t0.926-0.406h11.5q0.508 0 0.879 0.367t0.371 0.883z"/> </symbol><symbol viewBox="0 0 8 14" id="icon-facebook"><title>facebook</title> <path d="M7.492 0.094v2.062h-1.227q-0.672 0-0.906 0.281t-0.234 0.844v1.477h2.289l-0.305 2.313h-1.984v5.93h-2.391v-5.93h-1.992v-2.313h1.992v-1.703q0-1.453 0.813-2.254t2.164-0.801q1.148 0 1.781 0.094z"/> </symbol><symbol viewBox="0 0 11 14" id="icon-feed"><title>feed</title> <path d="M3 10.5q0 0.625-0.438 1.062t-1.062 0.438-1.062-0.438-0.438-1.062 0.438-1.062 1.062-0.438 1.062 0.438 0.438 1.062zM7 11.461q0.016 0.219-0.133 0.375-0.141 0.164-0.367 0.164h-1.055q-0.195 0-0.336-0.129t-0.156-0.324q-0.172-1.789-1.441-3.059t-3.059-1.441q-0.195-0.016-0.324-0.156t-0.129-0.336v-1.055q0-0.227 0.164-0.367 0.133-0.133 0.336-0.133h0.039q1.25 0.102 2.391 0.629t2.023 1.418q0.891 0.883 1.418 2.023t0.629 2.391zM11 11.477q0.016 0.211-0.141 0.367-0.141 0.156-0.359 0.156h-1.117q-0.203 0-0.348-0.137t-0.152-0.332q-0.094-1.68-0.789-3.191t-1.809-2.625-2.625-1.809-3.191-0.797q-0.195-0.008-0.332-0.152t-0.137-0.34v-1.117q0-0.219 0.156-0.359 0.141-0.141 0.344-0.141h0.023q2.047 0.102 3.918 0.937t3.324 2.297q1.461 1.453 2.297 3.324t0.937 3.918z"/> </symbol><symbol viewBox="0 0 13 14" id="icon-flask"><title>flask</title> <path d="M11.93 11.313q0.438 0.695 0.168 1.191t-1.098 0.496h-9q-0.828 0-1.098-0.496t0.168-1.191l3.93-6.195v-3.117h-0.5q-0.203 0-0.352-0.148t-0.148-0.352 0.148-0.352 0.352-0.148h4q0.203 0 0.352 0.148t0.148 0.352-0.148 0.352-0.352 0.148h-0.5v3.117zM5.844 5.648l-2.125 3.352h5.562l-2.125-3.352-0.156-0.242v-3.406h-1v3.406z"/> </symbol><symbol viewBox="0 0 12 14" id="icon-globe"><title>globe</title> <path d="M6 1q1.633 0 3.012 0.805t2.184 2.184 0.805 3.012-0.805 3.012-2.184 2.184-3.012 0.805-3.012-0.805-2.184-2.184-0.805-3.012 0.805-3.012 2.184-2.184 3.012-0.805zM8.141 5.070q-0.016 0.008-0.074 0.074t-0.105 0.074q0.016 0 0.035-0.039t0.039-0.086 0.027-0.055q0.047-0.055 0.172-0.117 0.109-0.047 0.406-0.094 0.266-0.062 0.398 0.086-0.016-0.016 0.074-0.102t0.113-0.094q0.023-0.016 0.117-0.035t0.117-0.059l0.016-0.172q-0.094 0.008-0.137-0.055t-0.051-0.164q0 0.016-0.047 0.062 0-0.055-0.035-0.062t-0.090 0.008-0.070 0.008q-0.078-0.023-0.117-0.059t-0.062-0.129-0.031-0.117q-0.016-0.039-0.074-0.082t-0.074-0.082q-0.008-0.016-0.020-0.043t-0.023-0.051-0.031-0.043-0.043-0.020-0.055 0.039-0.059 0.078-0.035 0.039q-0.023-0.016-0.047-0.012t-0.035 0.008-0.035 0.023-0.039 0.027q-0.023 0.016-0.066 0.023t-0.066 0.016q0.117-0.039-0.008-0.086-0.078-0.031-0.125-0.023 0.070-0.031 0.059-0.094t-0.066-0.109h0.039q-0.008-0.031-0.066-0.066t-0.137-0.066-0.102-0.047q-0.062-0.039-0.266-0.074t-0.258-0.004q-0.039 0.047-0.035 0.082t0.031 0.109 0.027 0.098q0.008 0.047-0.043 0.102t-0.051 0.094q0 0.055 0.109 0.121t0.078 0.168q-0.023 0.062-0.125 0.125t-0.125 0.094q-0.039 0.062-0.012 0.145t0.082 0.129q0.016 0.016 0.012 0.031t-0.027 0.035-0.043 0.031-0.051 0.027l-0.023 0.016q-0.086 0.039-0.16-0.047t-0.105-0.203q-0.055-0.195-0.125-0.234-0.18-0.062-0.227 0.008-0.039-0.102-0.32-0.203-0.195-0.070-0.453-0.031 0.047-0.008 0-0.117-0.055-0.117-0.148-0.094 0.023-0.047 0.031-0.137t0.008-0.105q0.023-0.102 0.094-0.18 0.008-0.008 0.055-0.066t0.074-0.105 0.004-0.047q0.273 0.031 0.391-0.086 0.039-0.039 0.090-0.133t0.082-0.133q0.070-0.047 0.109-0.043t0.113 0.043 0.113 0.039q0.109 0.008 0.121-0.086t-0.059-0.156q0.094 0.008 0.023-0.133-0.039-0.055-0.062-0.070-0.094-0.031-0.211 0.039-0.062 0.031 0.016 0.062-0.008-0.008-0.074 0.082t-0.129 0.137-0.125-0.039q-0.008-0.008-0.043-0.105t-0.074-0.105q-0.062 0-0.125 0.117 0.023-0.062-0.086-0.117t-0.187-0.062q0.148-0.094-0.062-0.211-0.055-0.031-0.16-0.039t-0.152 0.031q-0.039 0.055-0.043 0.090t0.039 0.062 0.082 0.043 0.090 0.031 0.066 0.023q0.109 0.078 0.062 0.109-0.016 0.008-0.066 0.027t-0.090 0.035-0.047 0.031q-0.023 0.031 0 0.109t-0.016 0.109q-0.039-0.039-0.070-0.137t-0.055-0.129q0.055 0.070-0.195 0.047l-0.078-0.008q-0.031 0-0.125 0.016t-0.16 0.008-0.105-0.062q-0.031-0.062 0-0.156 0.008-0.031 0.031-0.016-0.031-0.023-0.086-0.074t-0.078-0.066q-0.359 0.117-0.734 0.32 0.047 0.008 0.094-0.008 0.039-0.016 0.102-0.051t0.078-0.043q0.266-0.109 0.328-0.055l0.039-0.039q0.109 0.125 0.156 0.195-0.055-0.031-0.234-0.008-0.156 0.047-0.172 0.094 0.055 0.094 0.039 0.141-0.031-0.023-0.090-0.078t-0.113-0.086-0.117-0.039q-0.125 0-0.172 0.008-1.141 0.625-1.836 1.734 0.055 0.055 0.094 0.062 0.031 0.008 0.039 0.070t0.020 0.086 0.090-0.023q0.070 0.062 0.023 0.148 0.008-0.008 0.344 0.211 0.148 0.133 0.164 0.164 0.023 0.086-0.078 0.141-0.008-0.016-0.070-0.070t-0.070-0.031q-0.023 0.039 0.004 0.145t0.082 0.098q-0.055 0-0.074 0.125t-0.020 0.277-0.008 0.184l0.016 0.008q-0.023 0.094 0.043 0.27t0.168 0.152q-0.102 0.023 0.156 0.336 0.047 0.062 0.062 0.070 0.023 0.016 0.094 0.059t0.117 0.078 0.078 0.082q0.031 0.039 0.078 0.176t0.109 0.184q-0.016 0.047 0.074 0.156t0.082 0.18q-0.008 0-0.020 0.008t-0.020 0.008q0.023 0.055 0.121 0.109t0.121 0.102q0.008 0.023 0.016 0.078t0.023 0.086 0.062 0.016q0.016-0.156-0.187-0.484-0.117-0.195-0.133-0.227-0.023-0.039-0.043-0.121t-0.035-0.113q0.016 0 0.047 0.012t0.066 0.027 0.059 0.031 0.016 0.023q-0.023 0.055 0.016 0.137t0.094 0.145 0.133 0.148 0.094 0.102q0.047 0.047 0.109 0.152t0 0.105q0.070 0 0.156 0.078t0.133 0.156q0.039 0.062 0.062 0.203t0.039 0.187q0.016 0.055 0.066 0.105t0.098 0.074l0.125 0.062t0.102 0.055q0.039 0.016 0.145 0.082t0.168 0.090q0.078 0.031 0.125 0.031t0.113-0.020 0.105-0.027q0.117-0.016 0.227 0.117t0.164 0.164q0.281 0.148 0.43 0.086-0.016 0.008 0.004 0.059t0.062 0.121 0.070 0.113 0.043 0.066q0.039 0.047 0.141 0.117t0.141 0.117q0.047-0.031 0.055-0.070-0.023 0.062 0.055 0.156t0.141 0.078q0.109-0.023 0.109-0.25-0.242 0.117-0.383-0.141 0-0.008-0.020-0.043t-0.031-0.066-0.020-0.066 0-0.059 0.039-0.023q0.070 0 0.078-0.027t-0.016-0.098-0.031-0.102q-0.008-0.062-0.086-0.156t-0.094-0.117q-0.039 0.070-0.125 0.062t-0.125-0.070q0 0.008-0.012 0.043t-0.012 0.051q-0.102 0-0.117-0.008 0.008-0.023 0.020-0.137t0.027-0.176q0.008-0.031 0.043-0.094t0.059-0.113 0.031-0.098-0.035-0.074-0.137-0.020q-0.148 0.008-0.203 0.156-0.008 0.023-0.023 0.082t-0.039 0.090-0.070 0.055q-0.055 0.023-0.187 0.016t-0.187-0.039q-0.102-0.062-0.176-0.227t-0.074-0.289q0-0.078 0.020-0.207t0.023-0.195-0.043-0.191q0.023-0.016 0.070-0.074t0.078-0.082q0.016-0.008 0.035-0.012t0.035 0 0.031-0.012 0.023-0.047q-0.008-0.008-0.031-0.023-0.023-0.023-0.031-0.023 0.055 0.023 0.223-0.012t0.215 0.012q0.117 0.086 0.172-0.016 0-0.008-0.020-0.074t-0.004-0.105q0.039 0.211 0.227 0.070 0.023 0.023 0.121 0.039t0.137 0.039q0.023 0.016 0.055 0.043t0.043 0.035 0.039-0.004 0.066-0.051q0.078 0.109 0.094 0.187 0.086 0.312 0.148 0.344 0.055 0.023 0.086 0.016t0.035-0.074 0-0.109-0.012-0.098l-0.008-0.062v-0.141l-0.008-0.062q-0.117-0.023-0.145-0.094t0.012-0.145 0.117-0.145q0.008-0.008 0.062-0.027t0.121-0.051 0.098-0.062q0.164-0.148 0.117-0.273 0.055 0 0.086-0.070-0.008 0-0.039-0.023t-0.059-0.039-0.035-0.016q0.070-0.039 0.016-0.125 0.039-0.023 0.059-0.086t0.059-0.078q0.070 0.094 0.164 0.016 0.055-0.062 0.008-0.125 0.039-0.055 0.16-0.082t0.145-0.074q0.055 0.016 0.062-0.016t0.008-0.094 0.023-0.094q0.031-0.039 0.117-0.070t0.102-0.039l0.133-0.086q0.023-0.031 0-0.031 0.141 0.016 0.242-0.086 0.078-0.086-0.047-0.156 0.023-0.047-0.023-0.074t-0.117-0.043q0.023-0.008 0.090-0.004t0.082-0.012q0.117-0.078-0.055-0.125-0.133-0.039-0.336 0.094zM6.867 11.922q1.609-0.281 2.742-1.477-0.023-0.023-0.098-0.035t-0.098-0.027q-0.141-0.055-0.187-0.062 0.008-0.055-0.020-0.102t-0.062-0.070-0.098-0.062-0.086-0.055q-0.016-0.016-0.055-0.047t-0.055-0.043-0.059-0.035-0.066-0.016-0.078 0.008l-0.023 0.008q-0.023 0.008-0.043 0.020t-0.043 0.023-0.031 0.023 0 0.020q-0.164-0.133-0.281-0.172-0.039-0.008-0.086-0.043t-0.082-0.055-0.078-0.012-0.090 0.055q-0.039 0.039-0.047 0.117t-0.016 0.102q-0.055-0.039 0-0.137t0.016-0.145q-0.023-0.047-0.082-0.035t-0.094 0.035-0.090 0.066-0.070 0.051-0.066 0.043-0.066 0.059q-0.023 0.031-0.047 0.094t-0.039 0.086q-0.016-0.031-0.090-0.051t-0.074-0.043q0.016 0.078 0.031 0.273t0.039 0.297q0.055 0.242-0.094 0.375-0.211 0.195-0.227 0.312-0.031 0.172 0.094 0.203 0 0.055-0.062 0.16t-0.055 0.168q0 0.047 0.016 0.125z"/> </symbol><symbol viewBox="0 0 15 14" id="icon-group"><title>group</title> <path d="M4.633 7q-1.266 0.039-2.070 1h-1.047q-0.641 0-1.078-0.316t-0.438-0.926q0-2.758 0.969-2.758 0.047 0 0.34 0.164t0.762 0.332 0.93 0.168q0.523 0 1.039-0.18-0.039 0.289-0.039 0.516 0 1.086 0.633 2zM13 11.977q0 0.937-0.57 1.48t-1.516 0.543h-6.828q-0.945 0-1.516-0.543t-0.57-1.48q0-0.414 0.027-0.809t0.109-0.852 0.207-0.848 0.336-0.762 0.484-0.633 0.668-0.418 0.871-0.156q0.078 0 0.336 0.168t0.57 0.375 0.836 0.375 1.055 0.168 1.055-0.168 0.836-0.375 0.57-0.375 0.336-0.168q0.477 0 0.871 0.156t0.668 0.418 0.484 0.633 0.336 0.762 0.207 0.848 0.109 0.852 0.027 0.809zM5 2q0 0.828-0.586 1.414t-1.414 0.586-1.414-0.586-0.586-1.414 0.586-1.414 1.414-0.586 1.414 0.586 0.586 1.414zM10.5 5q0 1.242-0.879 2.121t-2.121 0.879-2.121-0.879-0.879-2.121 0.879-2.121 2.121-0.879 2.121 0.879 0.879 2.121zM15 6.758q0 0.609-0.438 0.926t-1.078 0.316h-1.047q-0.805-0.961-2.070-1 0.633-0.914 0.633-2 0-0.227-0.039-0.516 0.516 0.18 1.039 0.18 0.461 0 0.93-0.168t0.762-0.332 0.34-0.164q0.969 0 0.969 2.758zM14 2q0 0.828-0.586 1.414t-1.414 0.586-1.414-0.586-0.586-1.414 0.586-1.414 1.414-0.586 1.414 0.586 0.586 1.414z"/> </symbol><symbol viewBox="0 0 14 14" id="icon-heart-o"><title>heart-o</title> <path d="M13 4.656q0-0.633-0.168-1.117t-0.43-0.77-0.637-0.465-0.734-0.242-0.766-0.062-0.875 0.199-0.863 0.5-0.676 0.563-0.469 0.48q-0.141 0.172-0.383 0.172t-0.383-0.172q-0.187-0.219-0.469-0.48t-0.676-0.563-0.863-0.5-0.875-0.199-0.766 0.062-0.734 0.242-0.637 0.465-0.43 0.77-0.168 1.117q0 1.313 1.461 2.773l4.539 4.375 4.531-4.367q1.469-1.469 1.469-2.781zM14 4.656q0 1.727-1.789 3.516l-4.867 4.687q-0.141 0.141-0.344 0.141t-0.344-0.141l-4.875-4.703q-0.078-0.062-0.215-0.203t-0.434-0.512-0.531-0.762-0.418-0.945-0.184-1.078q0-1.719 0.992-2.687t2.742-0.969q0.484 0 0.988 0.168t0.937 0.453 0.746 0.535 0.594 0.531q0.281-0.281 0.594-0.531t0.746-0.535 0.937-0.453 0.988-0.168q1.75 0 2.742 0.969t0.992 2.687z"/> </symbol><symbol viewBox="0 0 14 14" id="icon-heart"><title>heart</title> <path d="M7 13q-0.203 0-0.344-0.141l-4.875-4.703q-0.078-0.062-0.215-0.203t-0.434-0.512-0.531-0.762-0.418-0.945-0.184-1.078q0-1.719 0.992-2.687t2.742-0.969q0.484 0 0.988 0.168t0.937 0.453 0.746 0.535 0.594 0.531q0.281-0.281 0.594-0.531t0.746-0.535 0.937-0.453 0.988-0.168q1.75 0 2.742 0.969t0.992 2.687q0 1.727-1.789 3.516l-4.867 4.687q-0.141 0.141-0.344 0.141z"/> </symbol><symbol viewBox="0 0 14 14" id="icon-heartbeat"><title>heartbeat</title> <path d="M10 8h2.383q-0.039 0.047-0.078 0.082t-0.070 0.059l-0.023 0.031-4.867 4.687q-0.141 0.141-0.344 0.141t-0.344-0.141l-4.875-4.703q-0.039-0.016-0.164-0.156h2.883q0.172 0 0.309-0.105t0.176-0.27l0.547-2.195 1.484 5.211q0.047 0.156 0.18 0.258t0.305 0.102q0.164 0 0.297-0.102t0.18-0.258l1.141-3.789 0.438 0.875q0.141 0.273 0.445 0.273zM14 4.656q0 1.133-0.805 2.344h-2.883l-0.867-1.727q-0.062-0.133-0.199-0.211t-0.285-0.062q-0.352 0.039-0.438 0.359l-1.008 3.359-1.531-5.359q-0.047-0.156-0.184-0.258t-0.309-0.102-0.305 0.105-0.172 0.27l-0.906 3.625h-3.305q-0.805-1.211-0.805-2.344 0-1.719 0.992-2.687t2.742-0.969q0.484 0 0.988 0.168t0.937 0.453 0.746 0.535 0.594 0.531q0.281-0.281 0.594-0.531t0.746-0.535 0.937-0.453 0.988-0.168q1.75 0 2.742 0.969t0.992 2.687z"/> </symbol><symbol viewBox="0 0 11 14" id="icon-hospital-o"><title>hospital-o</title> <path d="M3 10.25v0.5q0 0.102-0.074 0.176t-0.176 0.074h-0.5q-0.102 0-0.176-0.074t-0.074-0.176v-0.5q0-0.102 0.074-0.176t0.176-0.074h0.5q0.102 0 0.176 0.074t0.074 0.176zM3 8.25v0.5q0 0.102-0.074 0.176t-0.176 0.074h-0.5q-0.102 0-0.176-0.074t-0.074-0.176v-0.5q0-0.102 0.074-0.176t0.176-0.074h0.5q0.102 0 0.176 0.074t0.074 0.176zM5 8.25v0.5q0 0.102-0.074 0.176t-0.176 0.074h-0.5q-0.102 0-0.176-0.074t-0.074-0.176v-0.5q0-0.102 0.074-0.176t0.176-0.074h0.5q0.102 0 0.176 0.074t0.074 0.176zM3 6.25v0.5q0 0.102-0.074 0.176t-0.176 0.074h-0.5q-0.102 0-0.176-0.074t-0.074-0.176v-0.5q0-0.102 0.074-0.176t0.176-0.074h0.5q0.102 0 0.176 0.074t0.074 0.176zM9 10.25v0.5q0 0.102-0.074 0.176t-0.176 0.074h-0.5q-0.102 0-0.176-0.074t-0.074-0.176v-0.5q0-0.102 0.074-0.176t0.176-0.074h0.5q0.102 0 0.176 0.074t0.074 0.176zM7 8.25v0.5q0 0.102-0.074 0.176t-0.176 0.074h-0.5q-0.102 0-0.176-0.074t-0.074-0.176v-0.5q0-0.102 0.074-0.176t0.176-0.074h0.5q0.102 0 0.176 0.074t0.074 0.176zM5 6.25v0.5q0 0.102-0.074 0.176t-0.176 0.074h-0.5q-0.102 0-0.176-0.074t-0.074-0.176v-0.5q0-0.102 0.074-0.176t0.176-0.074h0.5q0.102 0 0.176 0.074t0.074 0.176zM9 8.25v0.5q0 0.102-0.074 0.176t-0.176 0.074h-0.5q-0.102 0-0.176-0.074t-0.074-0.176v-0.5q0-0.102 0.074-0.176t0.176-0.074h0.5q0.102 0 0.176 0.074t0.074 0.176zM7 6.25v0.5q0 0.102-0.074 0.176t-0.176 0.074h-0.5q-0.102 0-0.176-0.074t-0.074-0.176v-0.5q0-0.102 0.074-0.176t0.176-0.074h0.5q0.102 0 0.176 0.074t0.074 0.176zM9 6.25v0.5q0 0.102-0.074 0.176t-0.176 0.074h-0.5q-0.102 0-0.176-0.074t-0.074-0.176v-0.5q0-0.102 0.074-0.176t0.176-0.074h0.5q0.102 0 0.176 0.074t0.074 0.176zM7 13h3v-9h-2v0.25q0 0.312-0.219 0.531t-0.531 0.219h-3.5q-0.312 0-0.531-0.219t-0.219-0.531v-0.25h-2v9h3v-1.75q0-0.102 0.074-0.176t0.176-0.074h2.5q0.102 0 0.176 0.074t0.074 0.176v1.75zM7 3.75v-2.5q0-0.102-0.074-0.176t-0.176-0.074h-0.5q-0.102 0-0.176 0.074t-0.074 0.176v0.75h-1v-0.75q0-0.102-0.074-0.176t-0.176-0.074h-0.5q-0.102 0-0.176 0.074t-0.074 0.176v2.5q0 0.102 0.074 0.176t0.176 0.074h0.5q0.102 0 0.176-0.074t0.074-0.176v-0.75h1v0.75q0 0.102 0.074 0.176t0.176 0.074h0.5q0.102 0 0.176-0.074t0.074-0.176zM11 3.5v10q0 0.203-0.148 0.352t-0.352 0.148h-10q-0.203 0-0.352-0.148t-0.148-0.352v-10q0-0.203 0.148-0.352t0.352-0.148h2.5v-2.25q0-0.312 0.219-0.531t0.531-0.219h3.5q0.312 0 0.531 0.219t0.219 0.531v2.25h2.5q0.203 0 0.352 0.148t0.148 0.352z"/> </symbol><symbol viewBox="0 0 12 14" id="icon-instagram"><title>instagram</title> <path d="M10.641 11.141v-5.063h-1.055q0.156 0.492 0.156 1.023 0 0.984-0.5 1.816t-1.359 1.316-1.875 0.484q-1.539 0-2.633-1.059t-1.094-2.559q0-0.531 0.156-1.023h-1.102v5.063q0 0.203 0.137 0.34t0.34 0.137h8.352q0.195 0 0.336-0.137t0.141-0.34zM8.422 6.977q0-0.969-0.707-1.652t-1.707-0.684q-0.992 0-1.699 0.684t-0.707 1.652 0.707 1.652 1.699 0.684q1 0 1.707-0.684t0.707-1.652zM10.641 4.164v-1.289q0-0.219-0.156-0.379t-0.383-0.16h-1.359q-0.227 0-0.383 0.16t-0.156 0.379v1.289q0 0.227 0.156 0.383t0.383 0.156h1.359q0.227 0 0.383-0.156t0.156-0.383zM12 2.539v8.922q0 0.633-0.453 1.086t-1.086 0.453h-8.922q-0.633 0-1.086-0.453t-0.453-1.086v-8.922q0-0.633 0.453-1.086t1.086-0.453h8.922q0.633 0 1.086 0.453t0.453 1.086z"/> </symbol><symbol viewBox="0 0 14 14" id="icon-leaf"><title>leaf</title> <path d="M10 5.5q0-0.203-0.148-0.352t-0.352-0.148q-1.344 0-2.484 0.387t-2.027 1.047-1.84 1.715q-0.148 0.164-0.148 0.352 0 0.203 0.148 0.352t0.352 0.148q0.187 0 0.352-0.148 0.211-0.187 0.578-0.555t0.523-0.516q1.070-0.969 2.098-1.375t2.449-0.406q0.203 0 0.352-0.148t0.148-0.352zM14 3.953q0 0.742-0.156 1.508-0.359 1.75-1.441 2.992t-2.793 2.094q-1.672 0.844-3.422 0.844-1.156 0-2.234-0.367-0.117-0.039-0.688-0.328t-0.75-0.289q-0.125 0-0.309 0.25t-0.352 0.547-0.41 0.547-0.469 0.25q-0.234 0-0.398-0.086t-0.242-0.187-0.211-0.328q-0.016-0.031-0.047-0.086t-0.043-0.078-0.023-0.074-0.012-0.105q0-0.273 0.242-0.574t0.531-0.512 0.531-0.438 0.242-0.375q0-0.031-0.109-0.297t-0.125-0.344q-0.070-0.398-0.070-0.813 0-0.898 0.34-1.719t0.93-1.441 1.332-1.086 1.594-0.746q0.43-0.141 1.133-0.199t1.402-0.070 1.395-0.047 1.277-0.187 0.887-0.441l0.23-0.23t0.23-0.219 0.211-0.156 0.285-0.125 0.34-0.035q0.305 0 0.551 0.359t0.371 0.875 0.187 0.969 0.062 0.75z"/> </symbol><symbol viewBox="0 0 13 14" id="icon-linkedin"><title>linkedin</title> <path d="M11.5,1.3h-10C1,1.3,0.7,1.7,0.7,2.2v9.9c0,0.4,0.4,0.9,0.9,0.9h9.9c0.5,0,0.9-0.4,0.9-0.9V2.2
	C12.3,1.7,11.9,1.3,11.5,1.3z M4.3,11.2H2.5V5.8h1.8V11.2z M3.4,5.1C2.8,5.1,2.3,4.6,2.3,4s0.5-1,1.1-1s1,0.5,1,1S3.9,5.1,3.4,5.1z
	 M10.5,11.2H8.7V8.5c0-0.7-0.2-1.4-0.9-1.4S6.9,7.8,6.9,8.5v2.7H5.2V5.8H7v0.6l0,0C7.3,6,7.8,5.7,8.5,5.7c1.7,0,2,1.1,2,2.4V11.2z"/> </symbol><symbol viewBox="0 0 377.07 101.48" id="icon-logo"><title>sinclair_logo</title><path class="a" d="M41.74,79.89v13a4,4,0,0,0,0,1.45,2.08,2.08,0,0,0,.84.7A7.19,7.19,0,0,0,46,96.17V78.6h3V96.17h4.42V78.6h2.9V96.17h4.42V78.6a3.92,3.92,0,0,0,2.46-.45,1.48,1.48,0,0,0,.45-1.36c0-1,.48-2.62-1.26-3a13.4,13.4,0,0,0-2.78-.07H48.05a50.87,50.87,0,0,0-6.1.21c-5.81.89-7.35,2.23-9.4,5.92a18.69,18.69,0,0,0-2,5.26,53.55,53.55,0,0,1-2.13,7.07c-0.77,2.09-2.44,3.4-4.88,4.76V83.25a3,3,0,0,0-.08-1.38,2.38,2.38,0,0,0-.93-0.74,7.86,7.86,0,0,0-3.28-1.07V97.63h-3V80.06H11.81V97.63H8.9V80.06H4.48V97.63a8.67,8.67,0,0,0-1.39,0c-1.85.31-1.52,1.72-1.52,2.71,0,0.78-.16,1.71,1.14,2.07a12.84,12.84,0,0,0,3,.09h6.57c3.47,0,7.26.31,10.61-.36,7-1.4,9.2-5.57,10.49-10.22,0.48-1.71,2.05-6.31,2.46-8,0.59-2.51,2-5.37,5.87-5.11M27.6,83.42c0.73-.57.9-1.63,1.36-2.33a18.52,18.52,0,0,1,1.49-2,1.91,1.91,0,0,0,.69-0.95,1.8,1.8,0,0,0-.89-0.86,23.08,23.08,0,0,0-2.9-1.71,18.7,18.7,0,0,0-5.18-1.68,33.09,33.09,0,0,0-5.3-.23H5.11a10.75,10.75,0,0,0-2.27.07,1.74,1.74,0,0,0-1.11.7,1.84,1.84,0,0,0-.16,1c0,0.84-.39,2.19.66,2.79a5.16,5.16,0,0,0,2.5.31H16.61a19.92,19.92,0,0,1,3.92.18A12.19,12.19,0,0,1,25,80.84a14.4,14.4,0,0,1,2.55,2.58m8.55,8.77c-0.8,1.26-.39,1.53-1.41,2.74a7.26,7.26,0,0,0-1.16,2.85,6.32,6.32,0,0,0,2,1.53,23,23,0,0,0,4,2.06,19,19,0,0,0,4.8,1.16c1.56,0.14,3.23,0,4.8,0H60.43a8.69,8.69,0,0,0,2.15-.09,1.62,1.62,0,0,0,1-.69,2,2,0,0,0,.14-1c0-.81.35-2-0.53-2.66-1-.76-3.38-0.44-4.77-0.44H49.95c-1.41,0-2.89.09-4.29,0a13,13,0,0,1-7.07-3.17c-0.54-.52-1.84-1.77-2.43-2.26h0Z" transform="translate(-0.36 -1.13)"/><path class="a" d="M2.49,1.13C4.43,7.63,7.68,7.46,8.87,16.68c11.67-2,19.08,4.54,27.66,8.94-4.26-4.42-10.21-8.23-15.43-12.05C15.31,9.34,9.34,4.45,2.49,1.13M9.4,18.63L12.6,28.73a83.23,83.23,0,0,1,9.58.13c12,1.42,20.57,6.82,30.32,11.54C44.66,28.9,27.36,18.9,9.4,18.63m4.26,14c0.24,4,1.6,8,1.6,12.05,11.63-.37,22.16-2.4,33.52,1C53.42,47,56.94,49.25,61,51.28,55.4,37.07,31.53,32.62,13.66,32.62M15.79,47c0,4.51-1.11,8.76-1.6,13.22,12.22-2.86,27.87-5.47,40.43-2.29,4,1,7.18,2.9,10.64,4.63-0.47-2.69-.56-6.93-3.11-9.08s-8.3-3-11.79-3.69C39.15,47.54,27.37,47,15.79,47M0.36,72.36c2.82,0.63,6.73-.72,9.58-1.17a199.49,199.49,0,0,1,20.75-2.3,105,105,0,0,1,17.56.39c3.09,0.38,7.54,1.87,10.62,1.48s4.62-4,5.34-5.79c-11.64-4-27.32-3.27-39.9-2.4-3.63.25-8.16-.43-11.59,0.69-2,.65-3.05,2.83-4.32,4a22.55,22.55,0,0,1-8,5.05" transform="translate(-0.36 -1.13)"/><path class="a" d="M90.73,73.27a1.53,1.53,0,0,1-.34-1.05,3.94,3.94,0,0,1,.88-2.32A2.36,2.36,0,0,1,93,68.7a1.05,1.05,0,0,1,.72.28,15.94,15.94,0,0,0,11.32,4.64,10.94,10.94,0,0,0,6.85-2,7,7,0,0,0,2.66-5.91,11.37,11.37,0,0,0-.39-3.18,5.74,5.74,0,0,0-1.29-2.3,8.74,8.74,0,0,0-2.05-1.65,26.72,26.72,0,0,0-3-1.44l-8.25-3.37a16.32,16.32,0,0,1-6.81-4.78Q90.56,46.06,90.56,41a13.22,13.22,0,0,1,1.94-7.17,12.39,12.39,0,0,1,5.23-4.68,16.92,16.92,0,0,1,7.43-1.58,19.27,19.27,0,0,1,7.74,1.6,16.29,16.29,0,0,1,5.65,3.74,2.47,2.47,0,0,1,.66,1.76,3.2,3.2,0,0,1-.66,2,1.94,1.94,0,0,1-1.58.88A2,2,0,0,1,115.7,37a20,20,0,0,0-4.41-2.58,13.85,13.85,0,0,0-5.67-1.18,11.25,11.25,0,0,0-6.9,1.93,6.55,6.55,0,0,0-2.59,5.59,6.71,6.71,0,0,0,1.34,4.38A10.54,10.54,0,0,0,101.74,48L110,51.26a25.88,25.88,0,0,1,4.24,2.07A15.07,15.07,0,0,1,117.41,56a10.1,10.1,0,0,1,2.13,3.74,16.38,16.38,0,0,1,.7,5q0,6.89-4.15,10.72t-11.28,3.83Q96,79.31,90.73,73.27Z" transform="translate(-0.36 -1.13)"/><path class="a" d="M126.72,34.4a4.14,4.14,0,0,1-.92-2.79,4.17,4.17,0,0,1,.93-2.81,3.08,3.08,0,0,1,2.46-1.09,3,3,0,0,1,2.41,1.07,4.2,4.2,0,0,1,.92,2.83,4.14,4.14,0,0,1-.92,2.79A3.32,3.32,0,0,1,126.72,34.4Zm0.6,43.31a3.42,3.42,0,0,1-.75-2.37V46.76a3.26,3.26,0,0,1,.79-2.32,2.46,2.46,0,0,1,1.85-.84,2.35,2.35,0,0,1,1.8.84,3.34,3.34,0,0,1,.76,2.32V75.34a3.33,3.33,0,0,1-.79,2.34,2.44,2.44,0,0,1-1.85.86A2.35,2.35,0,0,1,127.33,77.71Z" transform="translate(-0.36 -1.13)"/><path class="a" d="M139.53,77.75a3.12,3.12,0,0,1-.75-2.23V46.62a3,3,0,0,1,.78-2.2,2.56,2.56,0,0,1,3.66,0,2.86,2.86,0,0,1,.76,2.13v3.06a9.51,9.51,0,0,1,3.58-4.92,9.91,9.91,0,0,1,5.79-1.72,9.34,9.34,0,0,1,7.56,3.38q2.82,3.38,2.82,10.23v19a3.09,3.09,0,0,1-.76,2.23,2.5,2.5,0,0,1-3.65,0,3.09,3.09,0,0,1-.76-2.23V56.46q0-4.5-1.71-6.86A5.6,5.6,0,0,0,152,47.25a6.86,6.86,0,0,0-5.57,2.88A13.25,13.25,0,0,0,144,58V75.52a3,3,0,0,1-.79,2.21,2.51,2.51,0,0,1-1.85.81A2.4,2.4,0,0,1,139.53,77.75Z" transform="translate(-0.36 -1.13)"/><path class="a" d="M172.27,74.06q-3.68-5.15-3.68-13a23.52,23.52,0,0,1,1.72-9.18,15.37,15.37,0,0,1,5-6.54,12.74,12.74,0,0,1,12-1.58,9.58,9.58,0,0,1,3.33,2.11,2.82,2.82,0,0,1,1,2,1.87,1.87,0,0,1-.47,1.3,1.5,1.5,0,0,1-1.16.53,1.91,1.91,0,0,1-1.21-.46A9.08,9.08,0,0,0,183,47.22,7.74,7.74,0,0,0,176.35,51q-2.56,3.78-2.56,10.18a23.9,23.9,0,0,0,.52,5.06,16.81,16.81,0,0,0,1.55,4.34,8.28,8.28,0,0,0,2.76,3.09,7,7,0,0,0,4,1.14,9.8,9.8,0,0,0,6.58-2.25,1.76,1.76,0,0,1,1.15-.46,1.42,1.42,0,0,1,1.12.54A2,2,0,0,1,191.9,74a3,3,0,0,1-1,2.14q-3.1,3.06-8.73,3.06A11.57,11.57,0,0,1,172.27,74.06Z" transform="translate(-0.36 -1.13)"/><path class="a" d="M197.63,77.71a3.42,3.42,0,0,1-.75-2.37V31.5a3.26,3.26,0,0,1,.79-2.32,2.46,2.46,0,0,1,1.85-.84,2.35,2.35,0,0,1,1.8.84,3.34,3.34,0,0,1,.76,2.32V75.34a3.32,3.32,0,0,1-.79,2.34,2.44,2.44,0,0,1-1.85.86A2.35,2.35,0,0,1,197.63,77.71Z" transform="translate(-0.36 -1.13)"/><path class="a" d="M209.64,76.54q-2.82-2.64-2.82-7.49a15.9,15.9,0,0,1,.34-3.52,10.07,10.07,0,0,1,1-2.65,5.65,5.65,0,0,1,1.78-1.93,11.42,11.42,0,0,1,2.53-1.3,16,16,0,0,1,3.5-.77q2.13-.26,4.38-0.37t5.44-.11V54.56q0-3.76-1.64-5.55a5.87,5.87,0,0,0-4.57-1.79,13.84,13.84,0,0,0-3.5.46,17.68,17.68,0,0,0-2.76.91q-1,.46-2.47,1.27a1.29,1.29,0,0,1-.69.18,1.58,1.58,0,0,1-1.29-.76,2.79,2.79,0,0,1-.55-1.67,1.85,1.85,0,0,1,.8-1.62,18.26,18.26,0,0,1,10.6-3.06q5.26,0,8.23,3t3,9.21v20.5a2.92,2.92,0,0,1-.79,2.16,2.5,2.5,0,0,1-1.82.79,2.37,2.37,0,0,1-1.77-.76,2.93,2.93,0,0,1-.73-2.13V72.32q-2.67,6.86-8.85,6.86A10.29,10.29,0,0,1,209.64,76.54Zm13.66-4.92a13.87,13.87,0,0,0,2.49-8.51V62.05q-3.56,0-5.8.16a25.3,25.3,0,0,0-4,.56,5.72,5.72,0,0,0-2.59,1.2,4.84,4.84,0,0,0-1.28,1.92,8.43,8.43,0,0,0-.42,2.88,6.26,6.26,0,0,0,1.55,4.69A5.83,5.83,0,0,0,217.51,75Q220.81,75,223.3,71.62Z" transform="translate(-0.36 -1.13)"/><path class="a" d="M238.21,34.4a4.14,4.14,0,0,1-.92-2.79,4.17,4.17,0,0,1,.93-2.81,3.08,3.08,0,0,1,2.46-1.09,3,3,0,0,1,2.41,1.07,4.2,4.2,0,0,1,.92,2.83,4.14,4.14,0,0,1-.92,2.79A3.32,3.32,0,0,1,238.21,34.4Zm0.6,43.31a3.42,3.42,0,0,1-.75-2.37V46.76a3.26,3.26,0,0,1,.79-2.32,2.46,2.46,0,0,1,1.85-.84,2.35,2.35,0,0,1,1.8.84,3.34,3.34,0,0,1,.76,2.32V75.34a3.33,3.33,0,0,1-.79,2.34,2.44,2.44,0,0,1-1.85.86A2.35,2.35,0,0,1,238.82,77.71Z" transform="translate(-0.36 -1.13)"/><path class="a" d="M251.08,77.77a3,3,0,0,1-.75-2.18v-29a2.88,2.88,0,0,1,.78-2.16,2.55,2.55,0,0,1,1.84-.76,2.5,2.5,0,0,1,1.82.76,2.81,2.81,0,0,1,.76,2.09l0,4.22a10.94,10.94,0,0,1,2.89-5.47,7.07,7.07,0,0,1,5.21-2.2,1.64,1.64,0,0,1,1.45.84,3.61,3.61,0,0,1,.53,2,3.27,3.27,0,0,1-.49,1.81,1.58,1.58,0,0,1-1.41.76,7.55,7.55,0,0,0-6,2.46,9.66,9.66,0,0,0-2.14,6.57V75.59a2.91,2.91,0,0,1-.79,2.18,2.57,2.57,0,0,1-1.85.77A2.42,2.42,0,0,1,251.08,77.77Z" transform="translate(-0.36 -1.13)"/><path class="a" d="M271.33,77.49a4.09,4.09,0,0,1-.92-2.67,4,4,0,0,1,.92-2.6,3.15,3.15,0,0,1,4.81,0,3.94,3.94,0,0,1,.93,2.62,4.09,4.09,0,0,1-.92,2.67A3.15,3.15,0,0,1,271.33,77.49Z" transform="translate(-0.36 -1.13)"/><path class="a" d="M286.6,77.54a3.64,3.64,0,0,1-.83-2.41V31.71a3.63,3.63,0,0,1,.83-2.43,2.55,2.55,0,0,1,2-1h11.58q7.21,0,10.66,3.29t3.45,9.23a13.36,13.36,0,0,1-2.14,7.66,8.71,8.71,0,0,1-6.13,3.8v0.14a11,11,0,0,1,7.34,3.85Q316,59.49,316,65.08a14.57,14.57,0,0,1-.86,5,13.66,13.66,0,0,1-2.51,4.29,11.36,11.36,0,0,1-4.41,3A16.46,16.46,0,0,1,302,78.54H288.61A2.53,2.53,0,0,1,286.6,77.54ZM299.36,50q4.86,0,7.08-2t2.23-6.68a10,10,0,0,0-.47-3.27A6.11,6.11,0,0,0,307,35.79,5.06,5.06,0,0,0,305,34.53a10.32,10.32,0,0,0-2.34-.62,20.67,20.67,0,0,0-2.74-.16h-8.45V50h7.84ZM300.79,73q4.86,0,7-1.85t2.17-7q0-5.06-2.7-6.93t-8.56-1.86h-7.21V73h9.28Z" transform="translate(-0.36 -1.13)"/><path class="a" d="M321.79,34.4a4.14,4.14,0,0,1-.92-2.79,4.17,4.17,0,0,1,.93-2.81,3.08,3.08,0,0,1,2.46-1.09,3,3,0,0,1,2.41,1.07,4.2,4.2,0,0,1,.92,2.83,4.14,4.14,0,0,1-.92,2.79A3.32,3.32,0,0,1,321.79,34.4Zm0.6,43.31a3.42,3.42,0,0,1-.75-2.37V46.76a3.26,3.26,0,0,1,.79-2.32,2.46,2.46,0,0,1,1.85-.84,2.35,2.35,0,0,1,1.8.84,3.34,3.34,0,0,1,.76,2.32V75.34a3.33,3.33,0,0,1-.79,2.34,2.44,2.44,0,0,1-1.85.86A2.35,2.35,0,0,1,322.39,77.71Z" transform="translate(-0.36 -1.13)"/><path class="a" d="M335.79,74.08q-3.89-5.1-3.89-13t3.89-13a13.38,13.38,0,0,1,21,0q3.89,5.08,3.89,13.06t-3.88,13A13.38,13.38,0,0,1,335.79,74.08Zm17.3-2.94q2.43-3.67,2.43-10.07T353.05,51a8,8,0,0,0-13.55,0q-2.44,3.71-2.44,10.11t2.43,10a7.63,7.63,0,0,0,6.74,3.71A7.75,7.75,0,0,0,353.08,71.14Z" transform="translate(-0.36 -1.13)"/><rect class="b" x="76.39" y="12.24" width="298.18" height="80.87" rx="12" ry="12"/></symbol><symbol viewBox="0 0 8 14" id="icon-map-marker"><title>map-marker</title> <path d="M6 5q0-0.828-0.586-1.414t-1.414-0.586-1.414 0.586-0.586 1.414 0.586 1.414 1.414 0.586 1.414-0.586 0.586-1.414zM8 5q0 0.852-0.258 1.398l-2.844 6.047q-0.125 0.258-0.371 0.406t-0.527 0.148-0.527-0.148-0.363-0.406l-2.852-6.047q-0.258-0.547-0.258-1.398 0-1.656 1.172-2.828t2.828-1.172 2.828 1.172 1.172 2.828z"/> </symbol><symbol viewBox="0 0 14 14" id="icon-medkit"><title>medkit</title> <path d="M10 8.75v-1.5q0-0.109-0.070-0.18t-0.18-0.070h-1.75v-1.75q0-0.109-0.070-0.18t-0.18-0.070h-1.5q-0.109 0-0.18 0.070t-0.070 0.18v1.75h-1.75q-0.109 0-0.18 0.070t-0.070 0.18v1.5q0 0.109 0.070 0.18t0.18 0.070h1.75v1.75q0 0.109 0.070 0.18t0.18 0.070h1.5q0.109 0 0.18-0.070t0.070-0.18v-1.75h1.75q0.109 0 0.18-0.070t0.070-0.18zM5 3h4v-1h-4v1zM2 3v10h-0.25q-0.719 0-1.234-0.516t-0.516-1.234v-6.5q0-0.719 0.516-1.234t1.234-0.516h0.25zM11.25 3v10h-8.5v-10h1.25v-1.25q0-0.312 0.219-0.531t0.531-0.219h4.5q0.312 0 0.531 0.219t0.219 0.531v1.25h1.25zM14 4.75v6.5q0 0.719-0.516 1.234t-1.234 0.516h-0.25v-10h0.25q0.719 0 1.234 0.516t0.516 1.234z"/> </symbol><symbol viewBox="0 0 11 14" id="icon-phone"><title>phone</title> <path d="M11 9.687q0 0.211-0.078 0.551t-0.164 0.535q-0.164 0.391-0.953 0.828-0.734 0.398-1.453 0.398-0.211 0-0.41-0.027t-0.449-0.098-0.371-0.113-0.434-0.16-0.383-0.141q-0.766-0.273-1.367-0.648-1-0.617-2.066-1.684t-1.684-2.066q-0.375-0.602-0.648-1.367-0.023-0.070-0.141-0.383t-0.16-0.434-0.113-0.371-0.098-0.449-0.027-0.41q0-0.719 0.398-1.453 0.438-0.789 0.828-0.953 0.195-0.086 0.535-0.164t0.551-0.078q0.109 0 0.164 0.023 0.141 0.047 0.414 0.594 0.086 0.148 0.234 0.422t0.273 0.496 0.242 0.418q0.023 0.031 0.137 0.195t0.168 0.277 0.055 0.223q0 0.156-0.223 0.391t-0.484 0.43-0.484 0.414-0.223 0.359q0 0.070 0.039 0.176t0.066 0.16 0.109 0.187 0.090 0.148q0.594 1.070 1.359 1.836t1.836 1.359q0.016 0.008 0.148 0.090t0.187 0.109 0.16 0.066 0.176 0.039q0.141 0 0.359-0.223t0.414-0.484 0.43-0.484 0.391-0.223q0.109 0 0.223 0.055t0.277 0.168 0.195 0.137q0.195 0.117 0.418 0.242t0.496 0.273 0.422 0.234q0.547 0.273 0.594 0.414 0.023 0.055 0.023 0.164z"/> </symbol><symbol viewBox="0 0 13 14" id="icon-quote-left"><title>quote-left</title> <path d="M6 7.5v3q0 0.625-0.438 1.062t-1.062 0.438h-3q-0.625 0-1.062-0.438t-0.438-1.062v-5.5q0-0.813 0.316-1.551t0.855-1.277 1.277-0.855 1.551-0.316h0.5q0.203 0 0.352 0.148t0.148 0.352v1q0 0.203-0.148 0.352t-0.352 0.148h-0.5q-0.828 0-1.414 0.586t-0.586 1.414v0.25q0 0.312 0.219 0.531t0.531 0.219h1.75q0.625 0 1.062 0.438t0.438 1.062zM13 7.5v3q0 0.625-0.438 1.062t-1.062 0.438h-3q-0.625 0-1.062-0.438t-0.438-1.062v-5.5q0-0.813 0.316-1.551t0.855-1.277 1.277-0.855 1.551-0.316h0.5q0.203 0 0.352 0.148t0.148 0.352v1q0 0.203-0.148 0.352t-0.352 0.148h-0.5q-0.828 0-1.414 0.586t-0.586 1.414v0.25q0 0.312 0.219 0.531t0.531 0.219h1.75q0.625 0 1.062 0.438t0.438 1.062z"/> </symbol><symbol viewBox="0 0 13 14" id="icon-quote-right"><title>quote-right</title> <path d="M6 2.5v5.5q0 0.813-0.316 1.551t-0.855 1.277-1.277 0.855-1.551 0.316h-0.5q-0.203 0-0.352-0.148t-0.148-0.352v-1q0-0.203 0.148-0.352t0.352-0.148h0.5q0.828 0 1.414-0.586t0.586-1.414v-0.25q0-0.312-0.219-0.531t-0.531-0.219h-1.75q-0.625 0-1.062-0.438t-0.438-1.062v-3q0-0.625 0.438-1.062t1.062-0.438h3q0.625 0 1.062 0.438t0.438 1.062zM13 2.5v5.5q0 0.813-0.316 1.551t-0.855 1.277-1.277 0.855-1.551 0.316h-0.5q-0.203 0-0.352-0.148t-0.148-0.352v-1q0-0.203 0.148-0.352t0.352-0.148h0.5q0.828 0 1.414-0.586t0.586-1.414v-0.25q0-0.312-0.219-0.531t-0.531-0.219h-1.75q-0.625 0-1.062-0.438t-0.438-1.062v-3q0-0.625 0.438-1.062t1.062-0.438h3q0.625 0 1.062 0.438t0.438 1.062z"/> </symbol><symbol viewBox="0 0 12 14" id="icon-skype"><title>skype</title> <path d="M9.164 8.305q0-0.391-0.152-0.715t-0.379-0.535-0.57-0.383-0.645-0.266-0.684-0.18l-0.813-0.187q-0.234-0.055-0.344-0.082t-0.273-0.090-0.234-0.125-0.129-0.164-0.059-0.234q0-0.602 1.125-0.602 0.336 0 0.602 0.094t0.422 0.223 0.297 0.262 0.312 0.227 0.375 0.094q0.367 0 0.59-0.25t0.223-0.602q0-0.43-0.438-0.777t-1.109-0.527-1.422-0.18q-0.531 0-1.031 0.121t-0.934 0.367-0.695 0.68-0.262 1.004q0 0.477 0.148 0.832t0.438 0.59 0.625 0.379 0.805 0.254l1.141 0.281q0.703 0.172 0.875 0.281 0.25 0.156 0.25 0.469 0 0.305-0.312 0.504t-0.82 0.199q-0.398 0-0.715-0.125t-0.508-0.301-0.355-0.352-0.359-0.301-0.422-0.125q-0.391 0-0.59 0.234t-0.199 0.586q0 0.719 0.953 1.23t2.273 0.512q0.57 0 1.094-0.145t0.957-0.418 0.691-0.73 0.258-1.027zM12 10q0 1.242-0.879 2.121t-2.121 0.879q-1.016 0-1.828-0.625-0.602 0.125-1.172 0.125-1.117 0-2.137-0.434t-1.758-1.172-1.172-1.758-0.434-2.137q0-0.57 0.125-1.172-0.625-0.813-0.625-1.828 0-1.242 0.879-2.121t2.121-0.879q1.016 0 1.828 0.625 0.602-0.125 1.172-0.125 1.117 0 2.137 0.434t1.758 1.172 1.172 1.758 0.434 2.137q0 0.57-0.125 1.172 0.625 0.813 0.625 1.828z"/> </symbol><symbol viewBox="0 0 13 14" id="icon-star-o"><title>star-o</title> <path d="M8.883 7.844l2.391-2.32-3.297-0.484-1.477-2.984-1.477 2.984-3.297 0.484 2.391 2.32-0.57 3.289 2.953-1.555 2.945 1.555zM13 5.055q0 0.172-0.203 0.375l-2.836 2.766 0.672 3.906q0.008 0.055 0.008 0.156 0 0.391-0.32 0.391-0.148 0-0.312-0.094l-3.508-1.844-3.508 1.844q-0.172 0.094-0.312 0.094-0.164 0-0.246-0.113t-0.082-0.277q0-0.047 0.016-0.156l0.672-3.906-2.844-2.766q-0.195-0.211-0.195-0.375 0-0.289 0.438-0.359l3.922-0.57 1.758-3.555q0.148-0.32 0.383-0.32t0.383 0.32l1.758 3.555 3.922 0.57q0.438 0.070 0.438 0.359z"/> </symbol><symbol viewBox="0 0 13 14" id="icon-star"><title>star</title> <path d="M13 5.055q0 0.172-0.203 0.375l-2.836 2.766 0.672 3.906q0.008 0.055 0.008 0.156 0 0.164-0.082 0.277t-0.238 0.113q-0.148 0-0.312-0.094l-3.508-1.844-3.508 1.844q-0.172 0.094-0.312 0.094-0.164 0-0.246-0.113t-0.082-0.277q0-0.047 0.016-0.156l0.672-3.906-2.844-2.766q-0.195-0.211-0.195-0.375 0-0.289 0.438-0.359l3.922-0.57 1.758-3.555q0.148-0.32 0.383-0.32t0.383 0.32l1.758 3.555 3.922 0.57q0.438 0.070 0.438 0.359z"/> </symbol><symbol viewBox="0 0 8 14" id="icon-tint"><title>tint</title> <path d="M4 9q0-0.281-0.156-0.539-0.008-0.008-0.121-0.176t-0.199-0.297-0.195-0.344-0.164-0.395q-0.031-0.125-0.164-0.125t-0.164 0.125q-0.055 0.18-0.164 0.395t-0.195 0.344-0.199 0.297-0.121 0.176q-0.156 0.258-0.156 0.539 0 0.414 0.293 0.707t0.707 0.293 0.707-0.293 0.293-0.707zM8 8q0 1.656-1.172 2.828t-2.828 1.172-2.828-1.172-1.172-2.828q0-1.133 0.633-2.148 0.047-0.070 0.488-0.707t0.789-1.18 0.777-1.391 0.648-1.574q0.070-0.234 0.266-0.367t0.398-0.133 0.402 0.133 0.262 0.367q0.219 0.727 0.648 1.574t0.777 1.391 0.789 1.18 0.488 0.707q0.633 0.992 0.633 2.148z"/> </symbol><symbol viewBox="0 0 13 14" id="icon-trophy"><title>trophy</title> <path d="M3.578 6.898q-0.578-1.266-0.578-2.898h-2v0.75q0 0.609 0.738 1.266t1.84 0.883zM12 4.75v-0.75h-2q0 1.633-0.578 2.898 1.102-0.227 1.84-0.883t0.738-1.266zM13 3.75v1q0 0.555-0.324 1.117t-0.875 1.016-1.352 0.762-1.684 0.348q-0.328 0.422-0.742 0.742-0.297 0.266-0.41 0.566t-0.113 0.699q0 0.422 0.238 0.711t0.762 0.289q0.586 0 1.043 0.355t0.457 0.895v0.5q0 0.109-0.070 0.18t-0.18 0.070h-6.5q-0.109 0-0.18-0.070t-0.070-0.18v-0.5q0-0.539 0.457-0.895t1.043-0.355q0.523 0 0.762-0.289t0.238-0.711q0-0.398-0.113-0.699t-0.41-0.566q-0.414-0.32-0.742-0.742-0.883-0.039-1.684-0.348t-1.352-0.762-0.875-1.016-0.324-1.117v-1q0-0.312 0.219-0.531t0.531-0.219h2.25v-0.75q0-0.516 0.367-0.883t0.883-0.367h4.5q0.516 0 0.883 0.367t0.367 0.883v0.75h2.25q0.312 0 0.531 0.219t0.219 0.531z"/> </symbol><symbol viewBox="0 0 13 14" id="icon-twitter"><title>twitter</title> <path d="M12.656 3.188q-0.523 0.766-1.266 1.305 0.008 0.109 0.008 0.328 0 1.016-0.297 2.027t-0.902 1.941-1.441 1.645-2.016 1.141-2.523 0.426q-2.117 0-3.875-1.133 0.273 0.031 0.609 0.031 1.758 0 3.133-1.078-0.82-0.016-1.469-0.504t-0.891-1.246q0.258 0.039 0.477 0.039 0.336 0 0.664-0.086-0.875-0.18-1.449-0.871t-0.574-1.605v-0.031q0.531 0.297 1.141 0.32-0.516-0.344-0.82-0.898t-0.305-1.203q0-0.688 0.344-1.273 0.945 1.164 2.301 1.863t2.902 0.777q-0.062-0.297-0.062-0.578 0-1.047 0.738-1.785t1.785-0.738q1.094 0 1.844 0.797 0.852-0.164 1.602-0.609-0.289 0.898-1.109 1.391 0.727-0.078 1.453-0.391z"/> </symbol><symbol viewBox="0 0 11 14" id="icon-user-md"><title>user-md</title> <path d="M3 10.5q0 0.203-0.148 0.352t-0.352 0.148-0.352-0.148-0.148-0.352 0.148-0.352 0.352-0.148 0.352 0.148 0.148 0.352zM11 10.977q0 0.945-0.57 1.484t-1.516 0.539h-6.828q-0.945 0-1.516-0.539t-0.57-1.484q0-0.531 0.043-1.023t0.187-1.078 0.371-1.035 0.633-0.805 0.937-0.473q-0.172 0.406-0.172 0.937v1.586q-0.453 0.156-0.727 0.547t-0.273 0.867q0 0.625 0.438 1.062t1.062 0.438 1.062-0.438 0.438-1.062q0-0.477-0.277-0.867t-0.723-0.547v-1.586q0-0.484 0.195-0.727 1.031 0.813 2.305 0.813t2.305-0.813q0.195 0.242 0.195 0.727v0.5q-0.828 0-1.414 0.586t-0.586 1.414v0.695q-0.25 0.227-0.25 0.555 0 0.312 0.219 0.531t0.531 0.219 0.531-0.219 0.219-0.531q0-0.328-0.25-0.555v-0.695q0-0.406 0.297-0.703t0.703-0.297 0.703 0.297 0.297 0.703v0.695q-0.25 0.227-0.25 0.555 0 0.312 0.219 0.531t0.531 0.219 0.531-0.219 0.219-0.531q0-0.328-0.25-0.555v-0.695q0-0.531-0.27-0.996t-0.73-0.73q0-0.078 0.004-0.332t0-0.375-0.020-0.324-0.055-0.367-0.102-0.312q0.531 0.117 0.937 0.473t0.633 0.805 0.371 1.035 0.187 1.078 0.043 1.023zM8.5 4q0 1.242-0.879 2.121t-2.121 0.879-2.121-0.879-0.879-2.121 0.879-2.121 2.121-0.879 2.121 0.879 0.879 2.121z"/> </symbol><symbol viewBox="0 0 11 14" id="icon-user"><title>user</title> <path d="M11 10.977q0 0.937-0.57 1.48t-1.516 0.543h-6.828q-0.945 0-1.516-0.543t-0.57-1.48q0-0.414 0.027-0.809t0.109-0.852 0.207-0.848 0.336-0.762 0.484-0.633 0.668-0.418 0.871-0.156q0.070 0 0.328 0.168t0.582 0.375 0.844 0.375 1.043 0.168 1.043-0.168 0.844-0.375 0.582-0.375 0.328-0.168q0.477 0 0.871 0.156t0.668 0.418 0.484 0.633 0.336 0.762 0.207 0.848 0.109 0.852 0.027 0.809zM8.5 4q0 1.242-0.879 2.121t-2.121 0.879-2.121-0.879-0.879-2.121 0.879-2.121 2.121-0.879 2.121 0.879 0.879 2.121z"/> </symbol><symbol viewBox="0 0 12 14" id="icon-youtube"><title>youtube</title> <path d="M7.586 9.719v1.648q0 0.523-0.305 0.523-0.18 0-0.352-0.172v-2.352q0.172-0.172 0.352-0.172 0.305 0 0.305 0.523zM10.227 9.727v0.359h-0.703v-0.359q0-0.531 0.352-0.531t0.352 0.531zM2.68 8.023h0.836v-0.734h-2.438v0.734h0.82v4.445h0.781v-4.445zM4.93 12.469h0.695v-3.859h-0.695v2.953q-0.234 0.328-0.445 0.328-0.141 0-0.164-0.164-0.008-0.023-0.008-0.273v-2.844h-0.695v3.055q0 0.383 0.062 0.57 0.094 0.289 0.453 0.289 0.375 0 0.797-0.477v0.422zM8.281 11.313v-1.539q0-0.57-0.070-0.773-0.133-0.438-0.555-0.438-0.391 0-0.727 0.422v-1.695h-0.695v5.18h0.695v-0.375q0.352 0.43 0.727 0.43 0.422 0 0.555-0.43 0.070-0.211 0.070-0.781zM10.922 11.234v-0.102h-0.711q0 0.398-0.016 0.477-0.055 0.281-0.312 0.281-0.359 0-0.359-0.539v-0.68h1.398v-0.805q0-0.617-0.211-0.906-0.305-0.398-0.828-0.398-0.531 0-0.836 0.398-0.219 0.289-0.219 0.906v1.352q0 0.617 0.227 0.906 0.305 0.398 0.844 0.398 0.563 0 0.844-0.414 0.141-0.211 0.164-0.422 0.016-0.070 0.016-0.453zM6.172 4.102v-1.641q0-0.539-0.336-0.539t-0.336 0.539v1.641q0 0.547 0.336 0.547t0.336-0.547zM11.789 9.969q0 1.828-0.203 2.734-0.109 0.461-0.453 0.773t-0.797 0.359q-1.438 0.164-4.336 0.164t-4.336-0.164q-0.453-0.047-0.801-0.359t-0.449-0.773q-0.203-0.875-0.203-2.734 0-1.828 0.203-2.734 0.109-0.461 0.453-0.773t0.805-0.367q1.43-0.156 4.328-0.156t4.336 0.156q0.453 0.055 0.801 0.367t0.449 0.773q0.203 0.875 0.203 2.734zM3.992 0h0.797l-0.945 3.117v2.117h-0.781v-2.117q-0.109-0.578-0.477-1.656-0.289-0.805-0.508-1.461h0.828l0.555 2.055zM6.883 2.602v1.367q0 0.633-0.219 0.922-0.289 0.398-0.828 0.398-0.523 0-0.82-0.398-0.219-0.297-0.219-0.922v-1.367q0-0.625 0.219-0.914 0.297-0.398 0.82-0.398 0.539 0 0.828 0.398 0.219 0.289 0.219 0.914zM9.5 1.336v3.898h-0.711v-0.43q-0.414 0.484-0.805 0.484-0.359 0-0.461-0.289-0.062-0.187-0.062-0.586v-3.078h0.711v2.867q0 0.258 0.008 0.273 0.023 0.172 0.164 0.172 0.211 0 0.445-0.336v-2.977h0.711z"/> </symbol></svg>