<svg xmlns="http://www.w3.org/2000/svg" viewBox="0 0 305.70392 70.99304" width="138" height="32" fill="currentColor">
  <rect fill="none" stroke="currentColor" stroke-width="5" stroke-miterlimit="10" x="3.2561154" y="4.4278669" width="298.76163" height="63.026627" rx="12.023407" ry="9.3522873" />
  <path
    aria-label="Sinclair.Bio"
    d="m 36.889581,28.415115 q 0,0 0,-2.79231 0,-1.675386 0.605,-3.071541 0.651539,-1.442694 1.721925,-2.513079 1.116924,-1.070386 2.559618,-1.675386 1.489232,-0.605001 3.164618,-0.605001 h 3.304233 q 1.628848,0 3.071541,0.651539 1.442694,0.605001 2.513079,1.675386 1.116925,1.023847 1.721925,2.466541 0.651539,1.396155 0.651539,2.978464 h -3.816157 q 0,-1.86154 -1.25654,-2.885387 -1.210001,-1.070386 -3.443849,-1.070386 h -3.071541 v 5.491544 q 0,0.698077 0.837693,1.675386 0.884232,0.977308 2.140771,2.187309 1.303078,1.163463 2.79231,2.513079 1.489232,1.349617 2.745772,2.79231 1.303078,1.396155 2.140771,2.885387 0.884232,1.442694 0.884232,2.838849 v 2.838849 q 0,1.582309 -0.605001,3.025002 -0.558462,1.396155 -1.628848,2.513079 -1.023847,1.070386 -2.513079,1.721925 -1.442693,0.605 -3.211156,0.605 h -3.257695 q -1.675386,0 -3.164618,-0.605 -1.442694,-0.651539 -2.559618,-1.721925 -1.070386,-1.070385 -1.721925,-2.46654 -0.605,-1.442694 -0.605,-3.071541 h 3.909234 q 0,1.768463 1.116924,2.885387 1.163463,1.116924 3.025003,1.116924 h 3.536926 v -5.677697 q 0,-0.837693 -0.884232,-1.908079 -0.837693,-1.116924 -2.140771,-2.326925 -1.256539,-1.210001 -2.79231,-2.513079 -1.489232,-1.349617 -2.79231,-2.699233 -1.25654,-1.349617 -2.140771,-2.652695 -0.837693,-1.349616 -0.837693,-2.606156 z M 68.329633,52.661674 H 60.604241 V 25.529728 h 7.725392 z m 0,-31.04118 h -7.725392 v -3.862696 h 7.725392 z m 19.619309,3.909234 q 1.675386,0 3.11808,0.698078 1.489232,0.651539 2.559617,1.768463 1.116924,1.116924 1.721925,2.559617 0.651539,1.442694 0.651539,2.931926 v 19.173862 h -7.725391 v -23.26925 h -7.77193 v 23.26925 H 72.777391 V 25.529728 Z M 108.21978,48.75244 h 3.72308 q 0.88423,0 1.67538,-0.372308 0.79116,-0.372308 1.34962,-0.977308 0.605,-0.605001 0.93077,-1.349617 0.32577,-0.791154 0.32577,-1.628847 h 3.8627 q 0,1.53577 -0.69808,3.025002 -0.69808,1.489232 -1.86154,2.652695 -1.11693,1.116924 -2.55962,1.86154 -1.44269,0.698077 -2.93193,0.698077 h -3.67654 q -1.48923,0 -2.93192,-0.651539 -1.39616,-0.698077 -2.51308,-1.815001 -1.07039,-1.116924 -1.76847,-2.559618 -0.65153,-1.442693 -0.65153,-2.978464 v -11.16924 q 0,-1.489232 0.65153,-2.931926 0.69808,-1.442693 1.81501,-2.559617 1.11692,-1.116924 2.51308,-1.768463 1.39615,-0.698078 2.88538,-0.698078 h 3.67654 q 1.48924,0 2.93193,0.698078 1.44269,0.698077 2.55962,1.86154 1.16346,1.116924 1.86154,2.606156 0.69808,1.489232 0.69808,3.025002 h -3.8627 q 0,-0.791154 -0.37231,-1.53577 -0.32577,-0.791155 -0.93077,-1.396155 -0.55846,-0.651539 -1.34962,-1.023847 -0.74461,-0.418847 -1.62884,-0.418847 h -3.72308 z m 24.04043,3.909234 h -7.7254 V 17.757798 h 7.7254 z m 12.54545,-23.26925 q -2.42,0 -3.39731,0.744616 -0.93077,0.744616 -0.93077,2.233848 h -3.76962 q 0,-2.978464 1.95462,-4.886543 1.95462,-1.954617 6.05001,-1.954617 h 7.16692 q 1.86154,0 3.35078,0.698078 1.48923,0.651539 2.51308,1.768463 1.07038,1.116924 1.62884,2.559617 0.55847,1.442694 0.55847,2.931926 v 19.173862 h -15.40425 q -1.58231,0 -3.025,-0.558462 -1.39616,-0.558462 -2.46654,-1.582309 -1.07039,-1.070385 -1.72193,-2.559617 -0.605,-1.489232 -0.605,-3.304234 v -4.141926 q 0,-1.535771 0.65154,-2.838849 0.69808,-1.303078 1.76847,-2.280387 1.11692,-0.977308 2.51307,-1.53577 1.39616,-0.558462 2.88539,-0.558462 h 7.67885 v -3.909234 z m 7.39962,7.771929 h -7.77193 V 48.75244 h 7.77193 z m 19.94507,15.497321 h -7.72539 V 25.529728 h 7.72539 z m 0,-31.04118 h -7.72539 v -3.862696 h 7.72539 z m 4.44776,31.04118 V 25.529728 h 7.72539 v 3.816157 l 0.74461,-0.605 q 0.69808,-0.605001 2.14078,-1.303078 1.48923,-0.698078 3.63,-1.303078 2.18731,-0.605001 5.11923,-0.605001 0,0 0,3.816157 -2.60615,0 -4.74692,0.698078 -2.14077,0.651539 -3.67654,1.442693 -1.53578,0.791155 -2.37347,1.489232 -0.83769,0.651539 -0.83769,0.651539 v 19.034247 z m 27.67046,0 h -7.72539 v -7.771929 h 7.72539 z m 5.05276,0 V 17.757798 h 15.40425 q 1.58231,0 3.025,0.558462 1.44269,0.558462 2.46654,1.582309 1.07039,1.023847 1.67539,2.466541 0.65154,1.442693 0.65154,3.211156 v 4.141927 q 0,1.675386 -0.65154,2.745772 -0.605,1.070385 -1.34962,1.675386 -0.74462,0.558462 -1.39616,0.791154 -0.605,0.232693 -0.605,0.232693 0,0 0.605,0.279231 0.65154,0.279231 1.39616,0.977308 0.74462,0.651539 1.34962,1.768463 0.65154,1.070386 0.65154,2.652695 v 3.955773 q 0,1.53577 -0.55847,2.978464 -0.55846,1.442693 -1.58231,2.513079 -1.02384,1.070385 -2.46654,1.721924 -1.44269,0.651539 -3.21115,0.651539 z m 7.72539,-3.909234 h 7.77193 V 37.117815 h -7.77193 z m 0,-15.543859 h 7.77193 V 21.573955 h -7.77193 z m 27.11198,19.453093 h -7.72539 V 25.529728 h 7.72539 z m 0,-31.04118 h -7.72539 v -3.862696 h 7.72539 z m 12.35931,31.04118 q -1.76846,0 -3.21115,-0.605 -1.4427,-0.651539 -2.51308,-1.721925 -1.02385,-1.070385 -1.62885,-2.513079 -0.55846,-1.489232 -0.55846,-3.164618 v -11.16924 q 0,-1.582309 0.605,-3.025003 0.605,-1.442693 1.67539,-2.513079 1.07038,-1.116924 2.51307,-1.768463 1.4427,-0.651539 3.11808,-0.651539 h 7.35309 q 1.76846,0 3.21115,0.651539 1.48924,0.651539 2.51308,1.768463 1.07039,1.070386 1.62885,2.513079 0.605,1.442694 0.605,3.025003 v 11.16924 q 0,1.675386 -0.605,3.164618 -0.55846,1.442694 -1.62885,2.513079 -1.02384,1.070386 -2.51308,1.721925 -1.44269,0.605 -3.21115,0.605 z m 7.58578,-3.909234 V 29.392424 h -7.77193 V 48.75244 Z" />
</svg>
