<svg xmlns="http://www.w3.org/2000/svg" viewBox="0 0 1062.6667 1629.3333" fill="currentColor">
  <path d="m 0,0 c -9.26,-14.677 -4.542,-17.708 -16.321,-31.772 -3.684,-4.4 -14.935,-27.873 -13.447,-33.105 1.426,-5.018 17.525,-14.543 22.86,-17.74 14.817,-8.881 29.388,-17.495 46.91,-23.87 17.353,-6.313 36.051,-11.674 55.712,-13.417 18.065,-1.601 37.5,-0.289 55.712,-0.289 h 82.101 48.382 c 7.807,0 17.55,-1.037 24.922,1.009 5.281,1.466 9.431,4.384 11.513,7.992 2.18,3.779 1.683,8.021 1.683,11.999 0.001,9.406 4.076,23.477 -6.178,30.892 -12.145,8.784 -39.284,5.108 -55.398,5.108 h -98.229 c -16.375,0 -33.563,-1.02 -49.847,0.174 C 79.88,-60.784 45.168,-42.362 28.251,-26.193 21.929,-20.152 6.873,-5.658 0,0 Z m -99.278,101.807 c 8.47,6.614 10.407,18.889 15.79,27 5.258,7.922 10.813,15.52 17.35,23 2.698,3.087 8.304,7.203 8.009,11 -0.308,3.979 -6.597,7.397 -10.367,10 -10.545,7.283 -21.563,13.832 -33.714,19.848 -17.626,8.727 -38.837,16.065 -60.11,19.498 -20.37,3.287 -40.799,2.654 -61.577,2.654 h -83.567 -52.78 c -8.348,0 -18.38,1.003 -26.389,-0.854 -5.808,-1.347 -10.468,-4.296 -12.861,-8.15 -2.332,-3.756 -1.8,-8.011 -1.801,-11.996 -10e-4,-9.719 -4.563,-25.375 7.607,-32.442 8.014,-4.654 19.28,-3.558 29.046,-3.558 h 65.974 71.839 c 15.067,0 30.822,0.932 45.449,-2.042 19.752,-4.017 38.549,-13.9 52.531,-23.997 12.506,-9.031 20.508,-19.37 29.571,-29.961 m 164.204,41 v -115 -36 c 0,-5.204 -1.581,-11.793 0.466,-16.83 1.346,-3.313 6.229,-5.857 9.798,-8.08 10.512,-6.552 25.085,-12.637 39.583,-13.09 v 204 h 35.186 v -204 h 51.314 v 204 h 33.72 v -204 h 51.314 v 204 c 10.226,0 21.159,-0.696 28.504,5.188 5.674,4.546 5.216,10.216 5.216,15.812 0.001,11.324 5.618,30.444 -14.662,35.146 -9.603,2.226 -22.22,0.854 -32.253,0.854 h -67.441 -67.44 c -18.856,0 -52.298,0.402 -70.818,-2.425 -67.438,-10.296 -85.335,-25.923 -109.112,-68.68 -9.082,-16.334 -20.756,-43.672 -23.192,-61.07 -2.54,-18.122 -18.114,-64.196 -24.69,-82.053 -8.922,-24.231 -28.277,-39.507 -56.612,-55.246 v 123.474 35 c 0,4.874 1.618,11.37 -0.884,16 -1.906,3.523 -6.715,6.222 -10.845,8.535 -10.705,5.998 -24.067,11.623 -38.119,12.465 v -204 h -35.186 v 204 h -51.314 v -204 h -33.72 v 204 h -51.313 v -204 c -5.304,0 -10.934,0.328 -16.128,-0.533 -21.519,-3.568 -17.593,-20.006 -17.593,-31.467 0,-9.069 -1.824,-19.822 13.196,-23.991 9.955,-2.763 24.585,-1.009 35.186,-1.009 h 76.237 c 40.237,0 84.258,-3.65 123.152,4.144 80.954,16.223 106.744,64.604 121.777,118.663 5.532,19.893 23.852,73.202 28.545,93.088 6.887,29.174 22.824,62.352 68.128,59.333" transform="matrix(1.3333333,0,0,-1.3333333,580.17773,1434.8687)" />
  <path d="m 0,0 c 32.794,-7.279 78.085,8.362 111.163,13.537 78.94,12.356 160.211,22.635 240.854,26.669 66.229,3.317 138.386,3.578 203.799,-4.472 35.851,-4.413 87.498,-21.754 123.268,-17.156 34.448,4.431 53.643,45.95 62.004,67.159 -135.149,46.902 -317.148,37.995 -463.18,27.842 -42.113,-2.929 -94.777,5.045 -134.551,-7.987 C 120.326,98.047 107.896,72.786 93.255,58.662 67.965,34.263 37.57,13.673 0,0 m 179.096,294.385 c 0,-52.349 -12.891,-101.675 -18.527,-153.424 141.851,33.144 323.535,63.491 469.356,26.619 46.868,-11.85 83.329,-33.636 123.515,-53.694 -5.404,31.254 -6.454,80.426 -36.085,105.425 -28.519,24.056 -96.335,34.697 -136.836,42.801 -130.221,26.05 -267.032,32.273 -401.423,32.273 m -24.703,166.961 c 2.76,-46.958 18.52,-92.641 18.528,-139.886 135.063,4.237 257.201,27.846 389.071,-11.069 53.933,-15.916 94.81,-42.052 142.042,-65.643 -65.049,164.988 -342.191,216.598 -549.641,216.598 m -49.405,162.449 37.054,-117.324 c 36.372,0 75.189,2.797 111.163,-1.466 C 392.443,488.507 491.984,425.818 605.222,371.097 514.297,504.504 313.382,620.652 104.988,623.795 M 24.703,826.856 C 47.214,751.481 84.953,753.424 98.812,646.357 234.318,669.93 320.342,593.639 419.95,542.571 370.501,593.863 301.475,638.162 240.854,682.457 173.56,731.627 104.251,788.408 24.703,826.856" transform="matrix(1.3333333,0,0,-1.3333333,26.2672,1127.9561)" />
</svg>
