<svg xmlns="http://www.w3.org/2000/svg" viewBox="0 0 18 15" width="18" height="15"><path fill="#444" d="M17.7 5.4c-.9-2.5-3.5-3.8-6-2.9-.1 0-.2.1-.2.2-.8-.8-1.8-1.4-2.9-1.8C7.9.6 7.2.5 6.5.5 3.7.5 1.3 2.2.4 4.9c-.6 1.8-.2 3.8.9 5.3.8.8 1.8 1.4 2.9 1.8.7.2.9.1.7.8-.1.3-.3 1.4-.4 1.7.4.1.9.2 1.3.1 2.2-.1 4.2-1 5.7-2.6 0 .1.1.1.2.2.6.3 1.3.5 2.1.5.3 0 .6 0 .9-.1l.4-.1-.1-.5c0-.1-.1-.4-.1-.6s-.1-.4-.1-.6l.2-.1c.8-.3 1.6-.8 2.1-1.4.8-1.1 1-2.6.6-3.9zm-7.9 6.9c-1.1.9-2.5 1.4-4 1.5h-.2l.2-.8c.1-.4.1-.8-.1-1.2-.2-.3-.5-.5-.9-.5l-.3-.1c-1-.3-1.8-.9-2.5-1.6-.7-.9-1-2-1-3.1h2.1v1.9h4.1V7.3H3.1v-.5h7.2v-1H3.1v-.5h7.2v-1H3.1v2L1 6.4v-.1c0-.4.1-.8.2-1.1C2 3 4.1 1.5 6.4 1.5c.6 0 1.2.1 1.8.3 1.5.4 2.7 1.4 3.4 2.7.7 1.3.9 2.8.5 4.3-.2 1.3-1.1 2.6-2.3 3.5zm6.5-3.6c-.5.5-1.1.9-1.7 1.1l-.2.1c-.4 0-.7.4-.6.7 0 .1 0 .2.1.3 0 .1.1.4.1.6v.2c-.7 0-1.3-.1-1.9-.4.5-.7.9-1.5 1.1-2.4.5-1.9.2-4-1-5.6 2-.6 4 .4 4.7 2.4.3 1 .1 2.2-.6 3z"/></svg>