<svg xmlns="http://www.w3.org/2000/svg" width="377.07" height="101.48" viewBox="0 0 377.07 101.48"><defs><style>.a{fill:#2c888c;}.b{fill:none;stroke:#2c888c;stroke-miterlimit:10;stroke-width:5px;}</style></defs><title>sinclair_logo</title><path class="a" d="M41.38 78.76v13a4 4 0 0 0 0 1.45 2.08 2.08 0 0 0 .84.7 7.19 7.19 0 0 0 3.42 1.13V77.47h3v17.57h4.42V77.47h2.9v17.57h4.42V77.47a3.92 3.92 0 0 0 2.46-.45 1.48 1.48 0 0 0 .45-1.36c0-1 .48-2.62-1.26-3a13.4 13.4 0 0 0-2.78-.07H47.69a50.87 50.87 0 0 0-6.1.21c-5.81.89-7.35 2.23-9.4 5.92a18.69 18.69 0 0 0-2 5.26 53.55 53.55 0 0 1-2.13 7.07c-.77 2.09-2.44 3.4-4.88 4.76V82.12a3 3 0 0 0-.08-1.38 2.38 2.38 0 0 0-.93-.74 7.86 7.86 0 0 0-3.28-1.07V96.5h-3V78.93h-4.44V96.5H8.54V78.93H4.12V96.5a8.67 8.67 0 0 0-1.39 0c-1.85.31-1.52 1.72-1.52 2.71 0 .78-.16 1.71 1.14 2.07a12.84 12.84 0 0 0 3 .09h6.57c3.47 0 7.26.31 10.61-.36 7-1.4 9.2-5.57 10.49-10.22.48-1.71 2.05-6.31 2.46-8 .59-2.51 2-5.37 5.87-5.11m-14.11 4.61c.73-.57.9-1.63 1.36-2.33a18.52 18.52 0 0 1 1.49-2 1.91 1.91 0 0 0 .69-.95 1.8 1.8 0 0 0-.89-.86 23.08 23.08 0 0 0-2.9-1.71 18.7 18.7 0 0 0-5.18-1.68 33.09 33.09 0 0 0-5.3-.23H4.75a10.75 10.75 0 0 0-2.27.07 1.74 1.74 0 0 0-1.11.7 1.84 1.84 0 0 0-.16 1c0 .84-.39 2.19.66 2.79a5.16 5.16 0 0 0 2.5.31h11.88a19.92 19.92 0 0 1 3.92.18 12.19 12.19 0 0 1 4.47 2.13 14.4 14.4 0 0 1 2.55 2.58m8.55 8.77c-.8 1.26-.39 1.53-1.41 2.74a7.26 7.26 0 0 0-1.16 2.85 6.32 6.32 0 0 0 2 1.53 23 23 0 0 0 4 2.06 19 19 0 0 0 4.8 1.16c1.56.14 3.23 0 4.8 0h11.3a8.69 8.69 0 0 0 2.15-.09 1.62 1.62 0 0 0 1-.69 2 2 0 0 0 .14-1c0-.81.35-2-.53-2.66-1-.76-3.38-.44-4.77-.44h-8.47c-1.41 0-2.89.09-4.29 0a13 13 0 0 1-7.07-3.17c-.54-.52-1.84-1.77-2.43-2.26zM2.13 0c1.94 6.5 5.19 6.33 6.38 15.55 11.67-2 19.08 4.54 27.66 8.94-4.26-4.42-10.21-8.23-15.43-12.05C14.95 8.21 8.98 3.32 2.13 0m6.91 17.5l3.2 10.1a83.23 83.23 0 0 1 9.58.13c12 1.42 20.57 6.82 30.32 11.54C44.3 27.77 27 17.77 9.04 17.5m4.26 14c.24 4 1.6 8 1.6 12.05 11.63-.37 22.16-2.4 33.52 1 4.64 1.32 8.16 3.57 12.22 5.6-5.6-14.21-29.47-18.66-47.34-18.66m2.13 14.38c0 4.51-1.11 8.76-1.6 13.22 12.22-2.86 27.87-5.47 40.43-2.29 4 1 7.18 2.9 10.64 4.63-.47-2.69-.56-6.93-3.11-9.08s-8.3-3-11.79-3.69c-11.21-2.25-22.99-2.79-34.57-2.79M0 71.23c2.82.63 6.73-.72 9.58-1.17a199.49 199.49 0 0 1 20.75-2.3 105 105 0 0 1 17.56.39c3.09.38 7.54 1.87 10.62 1.48s4.62-4 5.34-5.79c-11.64-4-27.32-3.27-39.9-2.4-3.63.25-8.16-.43-11.59.69-2 .65-3.05 2.83-4.32 4a22.55 22.55 0 0 1-8 5.05M90.37 72.14a1.53 1.53 0 0 1-.34-1.05 3.94 3.94 0 0 1 .88-2.32 2.36 2.36 0 0 1 1.73-1.2 1.05 1.05 0 0 1 .72.28 15.94 15.94 0 0 0 11.32 4.64 10.94 10.94 0 0 0 6.85-2 7 7 0 0 0 2.66-5.91 11.37 11.37 0 0 0-.39-3.18 5.74 5.74 0 0 0-1.29-2.3 8.74 8.74 0 0 0-2.05-1.65 26.72 26.72 0 0 0-3-1.44l-8.25-3.37a16.32 16.32 0 0 1-6.81-4.78q-2.2-2.93-2.2-7.99a13.22 13.22 0 0 1 1.94-7.17 12.39 12.39 0 0 1 5.23-4.68 16.92 16.92 0 0 1 7.43-1.58 19.27 19.27 0 0 1 7.74 1.6 16.29 16.29 0 0 1 5.65 3.74 2.47 2.47 0 0 1 .66 1.76 3.2 3.2 0 0 1-.66 2 1.94 1.94 0 0 1-1.58.88 2 2 0 0 1-1.27-.55 20 20 0 0 0-4.41-2.58 13.85 13.85 0 0 0-5.67-1.18 11.25 11.25 0 0 0-6.9 1.93 6.55 6.55 0 0 0-2.59 5.59 6.71 6.71 0 0 0 1.34 4.38 10.54 10.54 0 0 0 4.27 2.86l8.26 3.26a25.88 25.88 0 0 1 4.24 2.07 15.07 15.07 0 0 1 3.17 2.67 10.1 10.1 0 0 1 2.13 3.74 16.38 16.38 0 0 1 .7 5q0 6.89-4.15 10.72t-11.28 3.83q-8.81.02-14.08-6.02zM126.36 33.27a4.14 4.14 0 0 1-.92-2.79 4.17 4.17 0 0 1 .93-2.81 3.08 3.08 0 0 1 2.46-1.09 3 3 0 0 1 2.41 1.07 4.2 4.2 0 0 1 .92 2.83 4.14 4.14 0 0 1-.92 2.79 3.32 3.32 0 0 1-4.88 0zm.6 43.31a3.42 3.42 0 0 1-.75-2.37V45.63a3.26 3.26 0 0 1 .79-2.32 2.46 2.46 0 0 1 1.85-.84 2.35 2.35 0 0 1 1.8.84 3.34 3.34 0 0 1 .76 2.32v28.58a3.33 3.33 0 0 1-.79 2.34 2.44 2.44 0 0 1-1.85.86 2.35 2.35 0 0 1-1.8-.83zM139.17 76.62a3.12 3.12 0 0 1-.75-2.23v-28.9a3 3 0 0 1 .78-2.2 2.56 2.56 0 0 1 3.66 0 2.86 2.86 0 0 1 .76 2.13v3.06a9.51 9.51 0 0 1 3.58-4.92 9.91 9.91 0 0 1 5.79-1.72 9.34 9.34 0 0 1 7.56 3.38q2.82 3.38 2.82 10.23v19a3.09 3.09 0 0 1-.76 2.23 2.5 2.5 0 0 1-3.65 0 3.09 3.09 0 0 1-.76-2.23V55.33q0-4.5-1.71-6.86a5.6 5.6 0 0 0-4.85-2.35 6.86 6.86 0 0 0-5.57 2.88 13.25 13.25 0 0 0-2.43 7.87v17.52a3 3 0 0 1-.79 2.21 2.51 2.51 0 0 1-1.85.81 2.4 2.4 0 0 1-1.83-.79zM171.91 72.93q-3.68-5.15-3.68-13a23.52 23.52 0 0 1 1.72-9.18 15.37 15.37 0 0 1 5-6.54 12.74 12.74 0 0 1 12-1.58 9.58 9.58 0 0 1 3.33 2.11 2.82 2.82 0 0 1 1 2 1.87 1.87 0 0 1-.47 1.3 1.5 1.5 0 0 1-1.16.53 1.91 1.91 0 0 1-1.21-.46 9.08 9.08 0 0 0-5.8-2.02 7.74 7.74 0 0 0-6.65 3.78q-2.56 3.78-2.56 10.18a23.9 23.9 0 0 0 .52 5.06 16.81 16.81 0 0 0 1.55 4.34 8.28 8.28 0 0 0 2.76 3.09 7 7 0 0 0 4 1.14 9.8 9.8 0 0 0 6.58-2.25 1.76 1.76 0 0 1 1.15-.46 1.42 1.42 0 0 1 1.12.54 2 2 0 0 1 .43 1.36 3 3 0 0 1-1 2.14q-3.1 3.06-8.73 3.06a11.57 11.57 0 0 1-9.9-5.14zM197.27 76.58a3.42 3.42 0 0 1-.75-2.37V30.37a3.26 3.26 0 0 1 .79-2.32 2.46 2.46 0 0 1 1.85-.84 2.35 2.35 0 0 1 1.8.84 3.34 3.34 0 0 1 .76 2.32v43.84a3.32 3.32 0 0 1-.79 2.34 2.44 2.44 0 0 1-1.85.86 2.35 2.35 0 0 1-1.81-.83zM209.28 75.41q-2.82-2.64-2.82-7.49a15.9 15.9 0 0 1 .34-3.52 10.07 10.07 0 0 1 1-2.65 5.65 5.65 0 0 1 1.78-1.93 11.42 11.42 0 0 1 2.53-1.3 16 16 0 0 1 3.5-.77q2.13-.26 4.38-.37t5.44-.11v-3.84q0-3.76-1.64-5.55a5.87 5.87 0 0 0-4.57-1.79 13.84 13.84 0 0 0-3.5.46 17.68 17.68 0 0 0-2.76.91q-1 .46-2.47 1.27a1.29 1.29 0 0 1-.69.18 1.58 1.58 0 0 1-1.29-.76 2.79 2.79 0 0 1-.55-1.67 1.85 1.85 0 0 1 .8-1.62 18.26 18.26 0 0 1 10.6-3.06q5.26 0 8.23 3t3 9.21v20.5a2.92 2.92 0 0 1-.79 2.16 2.5 2.5 0 0 1-1.82.79 2.37 2.37 0 0 1-1.77-.76 2.93 2.93 0 0 1-.73-2.13v-3.38q-2.67 6.86-8.85 6.86a10.29 10.29 0 0 1-7.35-2.64zm13.66-4.92a13.87 13.87 0 0 0 2.49-8.51v-1.06q-3.56 0-5.8.16a25.3 25.3 0 0 0-4 .56 5.72 5.72 0 0 0-2.59 1.2 4.84 4.84 0 0 0-1.28 1.92 8.43 8.43 0 0 0-.42 2.88 6.26 6.26 0 0 0 1.55 4.69 5.83 5.83 0 0 0 4.26 1.54q3.3 0 5.79-3.38zM237.85 33.27a4.14 4.14 0 0 1-.92-2.79 4.17 4.17 0 0 1 .93-2.81 3.08 3.08 0 0 1 2.46-1.09 3 3 0 0 1 2.41 1.07 4.2 4.2 0 0 1 .92 2.83 4.14 4.14 0 0 1-.92 2.79 3.32 3.32 0 0 1-4.88 0zm.6 43.31a3.42 3.42 0 0 1-.75-2.37V45.63a3.26 3.26 0 0 1 .79-2.32 2.46 2.46 0 0 1 1.85-.84 2.35 2.35 0 0 1 1.8.84 3.34 3.34 0 0 1 .76 2.32v28.58a3.33 3.33 0 0 1-.79 2.34 2.44 2.44 0 0 1-1.85.86 2.35 2.35 0 0 1-1.8-.83zM250.72 76.64a3 3 0 0 1-.75-2.18v-29a2.88 2.88 0 0 1 .78-2.16 2.55 2.55 0 0 1 1.84-.76 2.5 2.5 0 0 1 1.82.76 2.81 2.81 0 0 1 .76 2.09v4.22a10.94 10.94 0 0 1 2.89-5.47 7.07 7.07 0 0 1 5.21-2.2 1.64 1.64 0 0 1 1.45.84 3.61 3.61 0 0 1 .53 2 3.27 3.27 0 0 1-.49 1.81 1.58 1.58 0 0 1-1.41.76 7.55 7.55 0 0 0-6 2.46 9.66 9.66 0 0 0-2.14 6.57v18.08a2.91 2.91 0 0 1-.79 2.18 2.57 2.57 0 0 1-1.85.77 2.42 2.42 0 0 1-1.85-.77zM270.97 76.36a4.09 4.09 0 0 1-.92-2.67 4 4 0 0 1 .92-2.6 3.15 3.15 0 0 1 4.81 0 3.94 3.94 0 0 1 .93 2.62 4.09 4.09 0 0 1-.92 2.67 3.15 3.15 0 0 1-4.82-.02zM286.24 76.41a3.64 3.64 0 0 1-.83-2.41V30.58a3.63 3.63 0 0 1 .83-2.43 2.55 2.55 0 0 1 2-1h11.58q7.21 0 10.66 3.29t3.45 9.23a13.36 13.36 0 0 1-2.14 7.66 8.71 8.71 0 0 1-6.13 3.8v.14a11 11 0 0 1 7.34 3.85q2.64 3.24 2.64 8.83a14.57 14.57 0 0 1-.86 5 13.66 13.66 0 0 1-2.51 4.29 11.36 11.36 0 0 1-4.41 3 16.46 16.46 0 0 1-6.22 1.17h-13.39a2.53 2.53 0 0 1-2.01-1zM299 48.87q4.86 0 7.08-2t2.23-6.68a10 10 0 0 0-.47-3.27 6.11 6.11 0 0 0-1.2-2.26 5.06 5.06 0 0 0-2-1.26 10.32 10.32 0 0 0-2.34-.62 20.67 20.67 0 0 0-2.74-.16h-8.45v16.25h7.84zm1.43 23q4.86 0 7-1.85t2.17-7q0-5.06-2.7-6.93t-8.56-1.86h-7.21v17.64h9.28zM321.43 33.27a4.14 4.14 0 0 1-.92-2.79 4.17 4.17 0 0 1 .93-2.81 3.08 3.08 0 0 1 2.46-1.09 3 3 0 0 1 2.41 1.07 4.2 4.2 0 0 1 .92 2.83 4.14 4.14 0 0 1-.92 2.79 3.32 3.32 0 0 1-4.88 0zm.6 43.31a3.42 3.42 0 0 1-.75-2.37V45.63a3.26 3.26 0 0 1 .79-2.32 2.46 2.46 0 0 1 1.85-.84 2.35 2.35 0 0 1 1.8.84 3.34 3.34 0 0 1 .76 2.32v28.58a3.33 3.33 0 0 1-.79 2.34 2.44 2.44 0 0 1-1.85.86 2.35 2.35 0 0 1-1.81-.83zM335.43 72.95q-3.89-5.1-3.89-13t3.89-13a13.38 13.38 0 0 1 21 0q3.89 5.08 3.89 13.06t-3.88 13a13.38 13.38 0 0 1-21.01-.06zm17.3-2.94q2.43-3.67 2.43-10.07t-2.47-10.07a8 8 0 0 0-13.55 0q-2.44 3.71-2.44 10.11t2.43 10a7.63 7.63 0 0 0 6.74 3.71 7.75 7.75 0 0 0 6.85-3.68z"/><rect class="b" x="76.39" y="12.24" width="298.18" height="80.87" rx="12" ry="12"/></svg>